<?xml version="1.0" encoding="utf-8"?>
<!DOCTYPE svg PUBLIC "-//W3C//DTD SVG 1.1//EN" "http://www.w3.org/Graphics/SVG/1.1/DTD/svg11.dtd">
<svg version="1.1" xmlns="http://www.w3.org/2000/svg" xmlns:xlink="http://www.w3.org/1999/xlink" xmlns:xml="http://www.w3.org/XML/1998/namespace" width="1280" height="720" overflow="hidden">
  <defs>
    <clipPath id="clip0">
      <rect x="0" y="0" width="1280" height="720" />
    </clipPath>
    <clipPath id="clip1">
      <rect x="0" y="0" width="1752600" height="419100" />
    </clipPath>
    <image preserveAspectRatio="none" width="247" height="72" xlink:href="images/Slide1--img2.png" id="img2" />
    <clipPath id="clip3">
      <path d="M118220 87469 L1870820 87469 L1870820 505532 L118220 505532 Z" clip-rule="evenodd" fill-rule="evenodd" />
    </clipPath>
    <clipPath id="clip4">
      <rect x="0" y="0" width="1590675" height="390525" />
    </clipPath>
    <image preserveAspectRatio="none" width="275" height="102" xlink:href="images/Slide1--img5.jpg" id="img5" />
    <clipPath id="clip6">
      <rect x="190512" y="175986" width="1590675" height="389425" />
    </clipPath>
    <clipPath id="clip7">
      <rect x="0" y="-1.45519E-11" width="1724025" height="419100" />
    </clipPath>
    <image preserveAspectRatio="none" width="300" height="158" xlink:href="images/Slide1--img8.png" id="img8" />
    <clipPath id="clip9">
      <rect x="0" y="246745" width="1724025" height="418573" />
    </clipPath>
    <clipPath id="clip10">
      <rect x="661" y="9" width="168" height="50" />
    </clipPath>
    <clipPath id="clip11">
      <rect x="661" y="9" width="168" height="51" />
    </clipPath>
    <radialGradient cx="0" cy="0" r="1" spreadMethod="pad" gradientUnits="userSpaceOnUse" gradientTransform="matrix(60.2563, -82.0516, 43.0912, 31.645, 3.90625E-06, 67.9488)" id="fill12">
      <stop offset="0%" stop-color="#BD00FF" />
      <stop offset="25%" stop-color="#BD00FF" />
      <stop offset="88.5417%" stop-color="#534EEB" />
      <stop offset="100%" stop-color="#534EEB" />
    </radialGradient>
    <image preserveAspectRatio="none" width="150" height="55" xlink:href="images/Slide1--img13.jpg" id="img13" />
    <clipPath id="clip14">
      <rect x="0" y="0" width="1376795" height="504825" />
    </clipPath>
    <clipPath id="clip15">
      <rect x="0" y="0" width="447675" height="466725" />
    </clipPath>
    <image preserveAspectRatio="none" width="90" height="135" xlink:href="images/Slide1--img16.png" id="img16" />
    <clipPath id="clip17">
      <rect x="0" y="99000.6" width="447370" height="466725" />
    </clipPath>
    <clipPath id="clip18">
      <rect x="9.31323E-10" y="-9.31323E-10" width="457200" height="457200" />
    </clipPath>
    <image preserveAspectRatio="none" width="150" height="88" xlink:href="images/Slide1--img19.png" id="img19" />
    <clipPath id="clip20">
      <path d="M156002 0 L613202 0 L613202 452447 L156002 452447 Z" clip-rule="evenodd" fill-rule="evenodd" />
    </clipPath>
    <clipPath id="clip21">
      <rect x="9.31323E-10" y="-9.31323E-10" width="447675" height="447675" />
    </clipPath>
    <image preserveAspectRatio="none" width="72" height="72" xlink:href="images/Slide1--img22.png" id="img22" />
    <clipPath id="clip23">
      <rect x="-0.5" y="0" width="447675" height="447675" />
    </clipPath>
    <clipPath id="clip24">
      <rect x="0" y="0" width="533400" height="409575" />
    </clipPath>
    <image preserveAspectRatio="none" width="115" height="115" xlink:href="images/Slide1--img25.png" id="img25" />
    <clipPath id="clip26">
      <path d="M45634.9 106494 L579035 106494 L579035 514487 L45634.9 514487 Z" clip-rule="evenodd" fill-rule="evenodd" />
    </clipPath>
    <clipPath id="clip27">
      <rect x="0" y="-9.31323E-10" width="1276350" height="419100" />
    </clipPath>
    <image preserveAspectRatio="none" width="140" height="63" xlink:href="images/Slide1--img28.png" id="img28" />
    <clipPath id="clip29">
      <rect x="0" y="17356.8" width="1241743" height="419100" />
    </clipPath>
    <clipPath id="clip30">
      <rect x="0" y="-9.31323E-10" width="1543050" height="542925" />
    </clipPath>
    <image preserveAspectRatio="none" width="179" height="65" xlink:href="images/Slide1--img31.png" id="img31" />
    <clipPath id="clip32">
      <rect x="0" y="14298.4" width="1534507" height="542925" />
    </clipPath>
    <clipPath id="clip33">
      <rect x="0" y="0" width="1971675" height="1181100" />
    </clipPath>
    <image preserveAspectRatio="none" width="327" height="154" xlink:href="images/Slide1--img34.jpg" id="img34" />
    <clipPath id="clip35">
      <path d="M308349 0 L2276665 0 L2276665 1181100 L308349 1181100 Z" clip-rule="evenodd" fill-rule="evenodd" />
    </clipPath>
    <image preserveAspectRatio="none" width="364" height="487" xlink:href="images/Slide1--img36.png" id="img36" />
    <clipPath id="clip37">
      <rect x="0" y="0" width="2409825" height="733425" />
    </clipPath>
    <image preserveAspectRatio="none" width="550" height="203" xlink:href="images/Slide1--img38.jpg" id="img38" />
    <clipPath id="clip39">
      <path d="M197755 141591 L2607580 141591 L2607580 873593 L197755 873593 Z" clip-rule="evenodd" fill-rule="evenodd" />
    </clipPath>
    <clipPath id="clip40">
      <rect x="0" y="0" width="1590675" height="581025" />
    </clipPath>
    <image preserveAspectRatio="none" width="300" height="110" xlink:href="images/Slide1--img41.jpg" id="img41" />
    <clipPath id="clip42">
      <rect x="0" y="0" width="1584614" height="581025" />
    </clipPath>
    <clipPath id="clip43">
      <rect x="0" y="0" width="609600" height="609600" />
    </clipPath>
    <image preserveAspectRatio="none" width="64" height="64" xlink:href="images/Slide1--img44.png" id="img44" />
    <clipPath id="clip45">
      <rect x="-1" y="-0.5" width="609600" height="609600" />
    </clipPath>
  </defs>
  <g clip-path="url(#clip0)" id="gSlide--slide1">
    <rect x="0" y="0" width="1280" height="720" id="rectSlide--slide1--0" style="fill:white;" />
    <rect x="0" y="660" width="1280" height="60" id="BottomRectangle--slide1--1" style="fill:#8064A2;" />
    <rect x="0" y="0" width="1280" height="67" id="TopRectangle--slide1--2" style="fill:#8064A2;" />
    <a href="#slide1" id="rectJohnBaluka--slide1--3__LINK">
      <path d="M5.50005 13.8335 C5.50005 8.12651 10.1265 3.50005 15.8335 3.50005 L202.167 3.50005 C207.874 3.50005 212.5 8.12651 212.5 13.8335 L212.5 55.1666 C212.5 60.8736 207.874 65.5001 202.167 65.5001 L15.8335 65.5001 C10.1265 65.5001 5.50005 60.8736 5.50005 55.1666 Z" id="rectJohnBaluka--slide1--3" fill-rule="evenodd" stroke-width="1.33333" stroke-miterlimit="8" style="fill:white;stroke:#4F81BD;" />
    </a>
    <a href="#slide2" id="rectMicrosoft--slide1--4__LINK">
      <path d="M218.5 13.8336 C218.5 8.12656 223.127 3.50005 228.834 3.50005 L414.166 3.50005 C419.874 3.50005 424.5 8.12656 424.5 13.8336 L424.5 55.1665 C424.5 60.8735 419.874 65.5 414.166 65.5 L228.834 65.5 C223.127 65.5 218.5 60.8735 218.5 55.1665 Z" id="rectMicrosoft--slide1--4" fill-rule="evenodd" stroke-width="1.33333" stroke-miterlimit="8" style="fill:white;stroke:#4F81BD;" />
    </a>
    <a href="#slide3" id="rectRadzen--slide1--5__LINK">
      <path d="M431.5 13.8336 C431.5 8.12656 436.127 3.50005 441.834 3.50005 L627.167 3.50005 C632.874 3.50005 637.5 8.12656 637.5 13.8336 L637.5 55.1665 C637.5 60.8735 632.874 65.5 627.167 65.5 L441.834 65.5 C436.127 65.5 431.5 60.8735 431.5 55.1665 Z" id="rectRadzen--slide1--5" fill-rule="evenodd" stroke-width="1.33333" stroke-miterlimit="8" style="fill:white;stroke:#4F81BD;" />
    </a>
    <a href="#slide4" id="rectAccess2Blazor--slide1--6__LINK">
      <path d="M644.5 13.8336 C644.5 8.12656 649.127 3.50005 654.834 3.50005 L840.167 3.50005 C845.874 3.50005 850.5 8.12656 850.5 13.8336 L850.5 55.1665 C850.5 60.8735 845.874 65.5 840.167 65.5 L654.834 65.5 C649.127 65.5 644.5 60.8735 644.5 55.1665 Z" id="rectAccess2Blazor--slide1--6" fill-rule="evenodd" stroke-width="1.33333" stroke-miterlimit="8" style="fill:white;stroke:#4F81BD;" />
    </a>
    <a href="#slide5" id="rectOqtane--slide1--7__LINK">
      <path d="M856.5 13.8335 C856.5 8.12651 861.127 3.50005 866.834 3.50005 L1053.17 3.50005 C1058.87 3.50005 1063.5 8.12651 1063.5 13.8335 L1063.5 55.1666 C1063.5 60.8736 1058.87 65.5001 1053.17 65.5001 L866.834 65.5001 C861.127 65.5001 856.5 60.8736 856.5 55.1666 Z" id="rectOqtane--slide1--7" fill-rule="evenodd" stroke-width="1.33333" stroke-miterlimit="8" style="fill:white;stroke:#4F81BD;" />
    </a>
    <a href="#slide6" id="rectContact--slide1--8__LINK">
      <path d="M1069.5 13.8336 C1069.5 8.12656 1074.13 3.50005 1079.83 3.50005 L1265.17 3.50005 C1270.87 3.50005 1275.5 8.12656 1275.5 13.8336 L1275.5 55.1665 C1275.5 60.8735 1270.87 65.5 1265.17 65.5 L1079.83 65.5 C1074.13 65.5 1069.5 60.8735 1069.5 55.1665 Z" id="rectContact--slide1--8" fill-rule="evenodd" stroke-width="1.33333" stroke-miterlimit="8" style="fill:white;stroke:#4F81BD;" />
      <text transform="translate(1102.47, 48)" id="rectContact--slide1--9" font-family="Carlito,sans-serif" font-size="43" font-weight="700" style="fill:#8064A2;">Options</text>
    </a>
    <a href="#slide1" id="imgJohnBaluka--slide1--10__LINK">
      <g clip-path="url(#clip1)" transform="matrix(0.000104987, 0, 0, 0.000104987, 15, 13)" id="imgJohnBaluka--slide1--10">
        <g clip-path="url(#clip3)" transform="matrix(1, 0, 0, 1.00248, -118220, -87686)">
          <use xlink:href="#img2" width="100%" height="100%" transform="scale(8037.36)" />
        </g>
      </g>
    </a>
    <a href="#slide2" id="imgMicrosoft--slide1--11__LINK">
      <g clip-path="url(#clip4)" transform="matrix(0.000104987, 0, 0, 0.000104987, 238, 15)" id="imgMicrosoft--slide1--11">
        <g clip-path="url(#clip6)" transform="matrix(1, 0, 0, 1.00282, -190512, -176483)">
          <use xlink:href="#img5" width="100%" height="100%" transform="scale(7147.87)" />
        </g>
      </g>
    </a>
    <a href="#slide5" id="imgOqtane--slide1--12__LINK">
      <g clip-path="url(#clip7)" transform="matrix(0.000104987, 0, 0, 0.000104987, 869, 12)" id="imgOqtane--slide1--12">
        <g clip-path="url(#clip9)" transform="matrix(1, 0, 0, 1.00126, -0.5, -247056)">
          <use xlink:href="#img8" width="100%" height="100%" transform="scale(5746.75)" />
        </g>
      </g>
    </a>
    <a href="#slide4" id="imgRadzen--slide1--13__LINK">
      <g clip-path="url(#clip10)" id="imgRadzen--slide1--13">
        <g clip-path="url(#clip11)">
          <g>
            <path d="M25 50 C38.8071 50 50 38.8071 50 25 C50 11.1929 38.8071 0 25 0 C11.1929 0 0 11.1929 0 25 C0 34.6323 5.44757 42.9925 13.4299 47.1673 L13.4454 46.875 L12.8671 35.9375 L19.4545 35.9375 C19.4545 35.9375 18.8204 40.9398 18.8204 46.875 C18.8204 47.6838 18.8327 48.4752 18.8541 49.2389 C20.8204 49.7359 22.8793 50 25 50 Z M27.1223 16.5284 C24.5061 18.0389 23.1255 20.5584 22.5877 21.7566 L18.8321 24.8255 C18.8245 24.37 18.8204 23.9068 18.8204 23.4375 C18.8204 17.5023 19.4848 12.5 19.4848 12.5 L12.8671 12.5 C12.8671 12.5 13.4454 17.5023 13.4454 23.4375 C13.4454 29.3727 12.8671 34.375 12.8671 34.375 L19.4848 34.375 C19.4848 34.375 18.9902 30.6507 18.8545 25.8162 L19.4652 25.3171 C20.0068 26.0504 21.465 27.6843 24.0877 28.3484 C27.5186 29.2171 33.7996 28.6429 33.7996 28.6429 C33.7996 28.6429 28.4634 25.4852 25.0325 24.6166 C23.0564 24.1162 21.4279 24.3032 20.4021 24.5516 L22.9511 22.4686 C24.1734 22.5063 26.9762 22.4123 29.7298 21.0446 C33.393 19.2248 40.5838 11.8825 40.5838 11.8825 C40.5838 11.8825 30.6468 14.4935 27.1223 16.5284 Z" transform="matrix(1.00347, 7.10543E-17, 0, 1, 661, 9)" fill-rule="evenodd" style="fill:url(&quot;#fill12&quot;);" />
            <path d="M94.2688 33.5132 L94.2664 33.5111 C92.9016 31.795 92.2305 29.4114 92.2305 26.3825 C92.2305 24.8882 92.4422 23.5379 92.8695 22.3337 L92.8703 22.3309 C93.3211 21.132 93.9109 20.1154 94.6422 19.2843 C95.3727 18.4552 96.2047 17.8125 97.1398 17.3584 L97.1414 17.3576 C98.1016 16.9038 99.0891 16.6759 100.103 16.6759 C101.158 16.6759 102.062 16.8638 102.808 17.2483 C103.436 17.5511 104.062 17.9548 104.685 18.4579 L104.556 15.9296 L104.556 10.7144 L109.16 10.7144 L109.16 35.6087 L105.321 35.6087 L105.034 33.7116 C104.38 34.3416 103.627 34.8809 102.774 35.3302 C101.862 35.8111 100.896 36.0521 99.8805 36.0521 C97.5383 36.0521 95.6617 35.207 94.2688 33.5132 Z M102.784 20.855 L102.781 20.8543 C102.208 20.6396 101.624 20.5327 101.028 20.5327 C99.9031 20.5327 98.9516 21.0204 98.1664 22.0186 C97.3844 23.0114 96.9813 24.4457 96.9813 26.3455 C96.9813 28.2991 97.325 29.7614 97.9875 30.7554 C98.668 31.7143 99.6367 32.1954 100.917 32.1954 C102.194 32.1954 103.406 31.5682 104.556 30.2709 L104.556 21.953 C103.948 21.4245 103.356 21.0609 102.784 20.855 Z M60.7142 17.1192 L64.562 17.1192 L64.8423 20.1636 C65.4655 19.0891 66.211 18.2548 67.082 17.6671 C68.0189 17.0101 68.9903 16.6759 69.9934 16.6759 L71.8692 16.6759 L71.8692 20.8282 L70.1384 20.8282 C69.0375 20.8282 68.1746 20.9677 67.281 21.6088 L67.2782 21.6109 C66.5335 22.1218 65.876 23.0373 65.3175 24.3845 L65.3175 35.6087 L60.7142 35.6087 Z M112.397 35.6087 L112.397 33.0907 L120.828 20.8282 L112.397 20.8282 L112.397 17.1192 L126.661 17.1192 L126.661 19.6002 L118.266 31.8629 L126.661 31.8629 L126.661 35.6087 Z M147.562 35.6087 L147.562 17.1192 L151.405 17.1192 L151.693 19.4937 C152.483 18.7446 153.33 18.097 154.234 17.5507 L154.235 17.5496 C155.228 16.9655 156.37 16.6759 157.655 16.6759 C159.643 16.6759 161.123 17.3188 162.052 18.6327 C162.97 19.9057 163.417 21.7207 163.417 24.0545 L163.417 35.6087 L158.814 35.6087 L158.814 24.6088 C158.814 23.1127 158.591 22.1012 158.18 21.5323 C157.779 20.9759 157.113 20.6805 156.137 20.6805 C155.378 20.6805 154.708 20.8695 154.12 21.2445 L154.119 21.2454 C153.555 21.5977 152.903 22.1261 152.165 22.835 L152.165 35.6087 Z M75.4419 34.5625 L75.4403 34.5609 C74.4082 33.5382 73.8973 32.1982 73.8973 30.558 C73.8973 29.5729 74.1014 28.6939 74.5146 27.9263 L74.5157 27.9245 C74.955 27.1309 75.6241 26.4577 76.515 25.9029 L76.517 25.9018 C77.4292 25.3493 78.5641 24.8882 79.9172 24.5157 L79.918 24.5155 C81.2563 24.1539 82.8391 23.875 84.6648 23.6782 C84.6336 23.2832 84.5648 22.9079 84.4594 22.552 L84.4578 22.5462 L84.4562 22.5405 C84.3625 22.1223 84.1875 21.7668 83.9344 21.4696 L83.9297 21.4643 L83.925 21.4584 C83.6969 21.1418 83.3883 20.9027 82.9938 20.7416 L82.9891 20.74 L82.9852 20.7382 C82.5922 20.5546 82.0969 20.4587 81.4922 20.4587 C80.6203 20.4587 79.7594 20.6266 78.9086 20.9636 C78.0725 21.3048 77.2477 21.7195 76.4346 22.2077 L76.2805 22.3004 L74.5485 19.1543 L74.687 19.0673 C75.7177 18.4196 76.8723 17.8604 78.15 17.3886 C79.4391 16.9129 80.8273 16.6759 82.3125 16.6759 C84.6344 16.6759 86.3938 17.3646 87.5547 18.7698 C88.7344 20.1429 89.3109 22.1229 89.3109 24.6827 L89.3109 35.6087 L85.4453 35.6087 L85.1539 33.6598 C84.3531 34.32 83.4938 34.8773 82.5773 35.3316 C81.6312 35.8127 80.5977 36.0521 79.4781 36.0521 C77.8255 36.0521 76.4743 35.5596 75.4419 34.5625 Z M82.7883 31.8846 C83.3781 31.5573 84.0078 31.0907 84.6758 30.4818 L84.6758 26.6889 C83.5234 26.8332 82.5539 27.0209 81.7648 27.2509 C80.9281 27.4946 80.2602 27.7727 79.7555 28.0821 L79.7531 28.0837 L79.75 28.0852 C79.2469 28.3702 78.9008 28.6952 78.6969 29.0546 C78.4875 29.4232 78.3836 29.8127 78.3836 30.2254 C78.3836 31.0023 78.6195 31.533 79.0594 31.86 C79.5203 32.2025 80.1156 32.3802 80.8586 32.3802 C81.5766 32.3802 82.2172 32.2145 82.7852 31.8861 Z M133.826 35.4125 L133.823 35.4113 C132.716 34.9593 131.746 34.3184 130.915 33.4889 C130.083 32.6582 129.429 31.6527 128.952 30.4752 L128.951 30.4711 C128.498 29.2659 128.273 27.9021 128.273 26.3825 C128.273 24.8861 128.511 23.5337 128.989 22.3279 C129.465 21.1279 130.092 20.1109 130.874 19.28 L130.877 19.278 C131.681 18.4495 132.6 17.8082 133.633 17.3555 C134.666 16.9029 135.726 16.6759 136.812 16.6759 C138.066 16.6759 139.176 16.8885 140.14 17.319 C141.101 17.7482 141.9 18.3554 142.535 19.1407 C143.193 19.9239 143.684 20.8564 144.011 21.935 C144.337 23.0127 144.499 24.1877 144.499 25.4587 C144.499 25.8821 144.43 26.6584 144.43 26.6584 C144.43 26.6584 144.362 27.3329 144.31 27.5655 L144.28 27.7013 L132.79 27.7013 C133.004 29.2018 133.549 30.3521 134.413 31.1695 C135.338 31.998 136.516 32.4171 137.959 32.4171 C138.732 32.4171 139.441 32.3088 140.087 32.0939 C140.765 31.8521 141.431 31.5255 142.087 31.1134 L142.244 31.0152 L143.851 33.978 L143.718 34.0654 C142.841 34.6404 141.866 35.1145 140.793 35.4882 C139.712 35.8645 138.583 36.0521 137.404 36.0521 C136.127 36.0521 134.933 35.8395 133.826 35.4125 Z M139.561 21.4616 L139.559 21.4591 C139.008 20.7021 138.141 20.3109 136.923 20.3109 C135.883 20.3109 134.975 20.675 134.191 21.4096 C133.45 22.1048 132.966 23.1193 132.755 24.4725 L140.45 24.4725 C140.425 23.1766 140.123 22.18 139.562 21.4639 Z" transform="matrix(1.00347, 0, 0, 1, 661, 9)" fill-rule="evenodd" style="fill:#050A23;" />
            <path d="M175.005 35.6249 L175.005 10.9124 L181.68 10.9124 C184.18 10.9124 186.167 11.3999 187.642 12.3749 C189.117 13.3249 189.855 14.8374 189.855 16.9124 C189.855 18.2124 189.53 19.3499 188.88 20.3249 C188.23 21.2749 187.28 21.9374 186.03 22.3124 L186.03 22.4624 C187.63 22.7124 188.917 23.3499 189.892 24.3749 C190.867 25.3749 191.355 26.7249 191.355 28.4249 C191.355 30.7999 190.517 32.5999 188.842 33.8249 C187.192 35.0249 184.967 35.6249 182.167 35.6249 Z M176.73 21.7874 L181.005 21.7874 C183.53 21.7874 185.342 21.3749 186.442 20.5499 C187.567 19.6999 188.13 18.5499 188.13 17.0999 C188.13 15.3499 187.542 14.1249 186.367 13.4249 C185.192 12.6999 183.467 12.3374 181.192 12.3374 L176.73 12.3374 Z M176.73 34.1999 L181.717 34.1999 C184.167 34.1999 186.105 33.7374 187.53 32.8124 C188.955 31.8874 189.667 30.4374 189.667 28.4624 C189.667 26.6874 188.967 25.3749 187.567 24.5249 C186.192 23.6499 184.242 23.2124 181.717 23.2124 L176.73 23.2124 Z" transform="matrix(1.00347, 0, 0, 1, 661, 9)" style="fill:#050A23;" />
            <path d="M197.959 36.0749 C196.484 36.0749 195.747 35.1249 195.747 33.2249 L195.747 8.66242 L197.397 8.66242 L197.397 33.4499 C197.397 34.2249 197.659 34.6124 198.184 34.6124 L198.447 34.6124 C198.547 34.5874 198.684 34.5624 198.859 34.5374 L199.159 35.8874 C198.984 35.9374 198.809 35.9749 198.634 35.9999 C198.459 36.0499 198.234 36.0749 197.959 36.0749 Z" transform="matrix(1.00347, 0, 0, 1, 661, 9)" style="fill:#050A23;" />
            <path d="M207.834 36.0749 C206.409 36.0749 205.184 35.6749 204.159 34.8749 C203.134 34.0749 202.621 32.8249 202.621 31.1249 C202.621 29.1249 203.559 27.6124 205.434 26.5874 C207.309 25.5374 210.246 24.7874 214.246 24.3374 C214.271 23.4124 214.171 22.5249 213.946 21.6749 C213.721 20.7999 213.296 20.0749 212.671 19.4999 C212.071 18.9249 211.171 18.6374 209.971 18.6374 C208.771 18.6374 207.671 18.8749 206.671 19.3499 C205.671 19.8249 204.859 20.2874 204.234 20.7374 L203.484 19.4999 C203.909 19.1999 204.459 18.8749 205.134 18.5249 C205.809 18.1499 206.571 17.8374 207.421 17.5874 C208.296 17.3124 209.221 17.1749 210.196 17.1749 C211.621 17.1749 212.746 17.4874 213.571 18.1124 C214.396 18.7374 214.984 19.5749 215.334 20.6249 C215.709 21.6499 215.896 22.8124 215.896 24.1124 L215.896 35.6249 L214.471 35.6249 L214.321 33.2999 L214.209 33.2999 C213.284 34.0249 212.284 34.6749 211.209 35.2499 C210.134 35.7999 209.009 36.0749 207.834 36.0749 Z M208.134 34.6499 C209.159 34.6499 210.146 34.3999 211.096 33.8999 C212.071 33.3999 213.121 32.6749 214.246 31.7249 L214.246 25.6124 C211.771 25.9124 209.809 26.2999 208.359 26.7749 C206.909 27.2499 205.871 27.8499 205.246 28.5749 C204.621 29.2749 204.309 30.0999 204.309 31.0499 C204.309 32.3499 204.684 33.2749 205.434 33.8249 C206.209 34.3749 207.109 34.6499 208.134 34.6499 Z" transform="matrix(1.00347, 0, 0, 1, 661, 9)" style="fill:#050A23;" />
            <path d="M219.129 35.6249 L219.129 34.7249 L229.779 19.0499 L220.291 19.0499 L220.291 17.6249 L231.916 17.6249 L231.916 18.4874 L221.304 34.1624 L232.291 34.1624 L232.291 35.6249 Z" transform="matrix(1.00347, 0, 0, 1, 661, 9)" style="fill:#050A23;" />
            <path d="M242.173 36.0749 C240.748 36.0749 239.423 35.7124 238.198 34.9874 C236.973 34.2374 235.986 33.1624 235.236 31.7624 C234.486 30.3374 234.111 28.6374 234.111 26.6624 C234.111 24.6374 234.486 22.9249 235.236 21.5249 C235.986 20.0999 236.973 19.0249 238.198 18.2999 C239.423 17.5499 240.748 17.1749 242.173 17.1749 C243.623 17.1749 244.961 17.5499 246.186 18.2999 C247.411 19.0249 248.398 20.0999 249.148 21.5249 C249.898 22.9249 250.273 24.6374 250.273 26.6624 C250.273 28.6374 249.898 30.3374 249.148 31.7624 C248.398 33.1624 247.411 34.2374 246.186 34.9874 C244.961 35.7124 243.623 36.0749 242.173 36.0749 Z M242.173 34.6124 C243.398 34.6124 244.486 34.2749 245.436 33.5999 C246.386 32.9249 247.136 31.9999 247.686 30.8249 C248.261 29.6249 248.548 28.2374 248.548 26.6624 C248.548 25.0624 248.261 23.6624 247.686 22.4624 C247.136 21.2624 246.386 20.3249 245.436 19.6499 C244.486 18.9749 243.398 18.6374 242.173 18.6374 C240.973 18.6374 239.886 18.9749 238.911 19.6499 C237.961 20.3249 237.211 21.2624 236.661 22.4624 C236.111 23.6624 235.836 25.0624 235.836 26.6624 C235.836 28.2374 236.111 29.6249 236.661 30.8249 C237.211 31.9999 237.961 32.9249 238.911 33.5999 C239.886 34.2749 240.973 34.6124 242.173 34.6124 Z" transform="matrix(1.00347, 0, 0, 1, 661, 9)" style="fill:#050A23;" />
            <path d="M254.93 35.6249 L254.93 17.6249 L256.355 17.6249 L256.505 20.9624 L256.617 20.9624 C257.217 19.8624 257.942 18.9624 258.792 18.2624 C259.667 17.5374 260.642 17.1749 261.717 17.1749 C262.067 17.1749 262.38 17.1999 262.655 17.2499 C262.93 17.2999 263.217 17.3999 263.517 17.5499 L263.142 19.0499 C262.842 18.9249 262.58 18.8499 262.355 18.8249 C262.13 18.7749 261.842 18.7499 261.492 18.7499 C260.692 18.7499 259.842 19.0999 258.942 19.7999 C258.067 20.4749 257.28 21.6624 256.58 23.3624 L256.58 35.6249 Z" transform="matrix(1.00347, 0, 0, 1, 661, 9)" style="fill:#050A23;" />
            <path d="M279.477 36.0749 C277.677 36.0749 276.077 35.7249 274.677 35.0249 C273.277 34.3249 272.089 33.4374 271.114 32.3624 L272.239 31.1624 C273.139 32.1624 274.214 32.9749 275.464 33.5999 C276.714 34.1999 278.052 34.4999 279.477 34.4999 C281.377 34.4999 282.877 34.0374 283.977 33.1124 C285.077 32.1874 285.627 30.9999 285.627 29.5499 C285.627 28.5249 285.427 27.6999 285.027 27.0749 C284.627 26.4499 284.089 25.9374 283.414 25.5374 C282.764 25.1124 282.026 24.7249 281.202 24.3749 L277.452 22.6874 C276.752 22.3624 276.002 21.9624 275.202 21.4874 C274.427 20.9874 273.764 20.3499 273.214 19.5749 C272.689 18.7749 272.427 17.7624 272.427 16.5374 C272.427 15.3374 272.739 14.2874 273.364 13.3874 C273.989 12.4624 274.839 11.7499 275.914 11.2499 C277.014 10.7249 278.252 10.4624 279.627 10.4624 C281.102 10.4624 282.427 10.7624 283.602 11.3624 C284.777 11.9374 285.739 12.6249 286.489 13.4249 L285.514 14.5499 C284.789 13.7999 283.939 13.1999 282.964 12.7499 C281.989 12.2749 280.877 12.0374 279.627 12.0374 C278.002 12.0374 276.677 12.4374 275.652 13.2374 C274.652 14.0374 274.152 15.1124 274.152 16.4624 C274.152 17.4124 274.377 18.1874 274.827 18.7874 C275.302 19.3874 275.863 19.8749 276.514 20.2499 C277.188 20.6249 277.826 20.9499 278.426 21.2249 L282.177 22.8749 C283.102 23.2749 283.952 23.7499 284.727 24.2999 C285.527 24.8249 286.164 25.4999 286.639 26.3249 C287.139 27.1249 287.389 28.1624 287.389 29.4374 C287.389 30.6874 287.064 31.8249 286.414 32.8499 C285.764 33.8499 284.839 34.6374 283.639 35.2124 C282.464 35.7874 281.077 36.0749 279.477 36.0749 Z" transform="matrix(1.00347, 0, 0, 1, 661, 9)" style="fill:#050A23;" />
            <path d="M295.752 36.0749 C294.002 36.0749 292.814 35.5749 292.189 34.5749 C291.564 33.5499 291.252 32.2374 291.252 30.6374 L291.252 19.0499 L288.439 19.0499 L288.439 17.7749 L291.289 17.6249 L291.514 12.4124 L292.939 12.4124 L292.939 17.6249 L298.152 17.6249 L298.152 19.0499 L292.939 19.0499 L292.939 30.7874 C292.939 31.9374 293.139 32.8624 293.539 33.5624 C293.939 34.2624 294.752 34.6124 295.977 34.6124 C296.327 34.6124 296.702 34.5624 297.102 34.4624 C297.527 34.3374 297.902 34.1999 298.227 34.0499 L298.677 35.3999 C298.152 35.5749 297.614 35.7249 297.064 35.8499 C296.539 35.9999 296.102 36.0749 295.752 36.0749 Z" transform="matrix(1.00347, 0, 0, 1, 661, 9)" style="fill:#050A23;" />
            <path d="M306.946 36.0749 C305.096 36.0749 303.721 35.5124 302.821 34.3874 C301.946 33.2374 301.509 31.4999 301.509 29.1749 L301.509 17.6249 L303.159 17.6249 L303.159 28.9499 C303.159 30.8499 303.471 32.2624 304.096 33.1874 C304.746 34.1124 305.796 34.5749 307.246 34.5749 C308.321 34.5749 309.296 34.2874 310.171 33.7124 C311.046 33.1124 312.009 32.1749 313.059 30.8999 L313.059 17.6249 L314.709 17.6249 L314.709 35.6249 L313.321 35.6249 L313.134 32.6249 L313.059 32.6249 C312.184 33.6499 311.259 34.4874 310.284 35.1374 C309.309 35.7624 308.196 36.0749 306.946 36.0749 Z" transform="matrix(1.00347, 0, 0, 1, 661, 9)" style="fill:#050A23;" />
            <path d="M326.832 36.0749 C324.557 36.0749 322.745 35.2624 321.395 33.6374 C320.045 32.0124 319.37 29.6874 319.37 26.6624 C319.37 24.7124 319.732 23.0374 320.457 21.6374 C321.207 20.2124 322.182 19.1124 323.382 18.3374 C324.607 17.5624 325.932 17.1749 327.357 17.1749 C328.457 17.1749 329.407 17.3749 330.207 17.7749 C331.032 18.1499 331.895 18.6874 332.795 19.3874 L332.72 16.0874 L332.72 8.66242 L334.37 8.66242 L334.37 35.6249 L332.945 35.6249 L332.795 33.2999 L332.682 33.2999 C331.957 34.0249 331.095 34.6749 330.095 35.2499 C329.12 35.7999 328.032 36.0749 326.832 36.0749 Z M327.057 34.6124 C328.057 34.6124 329.007 34.3624 329.907 33.8624 C330.832 33.3374 331.77 32.5999 332.72 31.6499 L332.72 20.9624 C331.77 20.1124 330.87 19.5124 330.02 19.1624 C329.195 18.8124 328.345 18.6374 327.47 18.6374 C326.27 18.6374 325.195 18.9999 324.245 19.7249 C323.295 20.4249 322.532 21.3749 321.957 22.5749 C321.407 23.7749 321.132 25.1374 321.132 26.6624 C321.132 29.0374 321.645 30.9624 322.67 32.4374 C323.695 33.8874 325.157 34.6124 327.057 34.6124 Z" transform="matrix(1.00347, 0, 0, 1, 661, 9)" style="fill:#050A23;" />
            <path d="M340.517 35.6249 L340.517 17.6249 L342.167 17.6249 L342.167 35.6249 Z M341.38 13.2749 C340.98 13.2749 340.642 13.1374 340.367 12.8624 C340.092 12.5874 339.955 12.2124 339.955 11.7374 C339.955 11.3124 340.092 10.9624 340.367 10.6874 C340.642 10.4124 340.98 10.2749 341.38 10.2749 C341.805 10.2749 342.142 10.4124 342.392 10.6874 C342.667 10.9624 342.805 11.3124 342.805 11.7374 C342.805 12.2124 342.667 12.5874 342.392 12.8624 C342.142 13.1374 341.805 13.2749 341.38 13.2749 Z" transform="matrix(1.00347, 0, 0, 1, 661, 9)" style="fill:#050A23;" />
            <path d="M354.899 36.0749 C353.474 36.0749 352.149 35.7124 350.924 34.9874 C349.699 34.2374 348.712 33.1624 347.962 31.7624 C347.212 30.3374 346.837 28.6374 346.837 26.6624 C346.837 24.6374 347.212 22.9249 347.962 21.5249 C348.712 20.0999 349.699 19.0249 350.924 18.2999 C352.149 17.5499 353.474 17.1749 354.899 17.1749 C356.349 17.1749 357.687 17.5499 358.912 18.2999 C360.137 19.0249 361.124 20.0999 361.874 21.5249 C362.624 22.9249 362.999 24.6374 362.999 26.6624 C362.999 28.6374 362.624 30.3374 361.874 31.7624 C361.124 33.1624 360.137 34.2374 358.912 34.9874 C357.687 35.7124 356.349 36.0749 354.899 36.0749 Z M354.899 34.6124 C356.124 34.6124 357.212 34.2749 358.162 33.5999 C359.112 32.9249 359.862 31.9999 360.412 30.8249 C360.987 29.6249 361.274 28.2374 361.274 26.6624 C361.274 25.0624 360.987 23.6624 360.412 22.4624 C359.862 21.2624 359.112 20.3249 358.162 19.6499 C357.212 18.9749 356.124 18.6374 354.899 18.6374 C353.699 18.6374 352.612 18.9749 351.637 19.6499 C350.687 20.3249 349.937 21.2624 349.387 22.4624 C348.837 23.6624 348.562 25.0624 348.562 26.6624 C348.562 28.2374 348.837 29.6249 349.387 30.8249 C349.937 31.9999 350.687 32.9249 351.637 33.5999 C352.612 34.2749 353.699 34.6124 354.899 34.6124 Z" transform="matrix(1.00347, 0, 0, 1, 661, 9)" style="fill:#050A23;" />
          </g>
        </g>
      </g>
    </a>
    <a href="#slide3" id="imgBlazor--slide1--14__LINK">
      <g transform="matrix(0.000104987, 0, 0, 0.000104987, 457, 8)" id="imgBlazor--slide1--14">
        <g clip-path="url(#clip14)" transform="scale(1.01698, 1)">
          <use xlink:href="#img13" width="100%" height="100%" transform="scale(9178.64)" />
        </g>
      </g>
    </a>
    <a href="https://www.linkedin.com/in/johnbaluka/" id="imgLinkedIn--slide1--15__LINK" target="_blank">
      <title>Connect on LinkedIn</title>
      <g clip-path="url(#clip15)" transform="matrix(0.000104987, 0, 0, 0.000104987, 587, 665)" id="imgLinkedIn--slide1--15">
        <g clip-path="url(#clip17)" transform="matrix(1.00068, 0, 0, 1, 0, -99000.9)">
          <use xlink:href="#img16" width="100%" height="100%" transform="scale(4970.77)" />
        </g>
      </g>
    </a>
    <a href="https://github.com/JohnBaluka" id="imgGitHub--slide1--16__LINK" target="_blank">
      <title>See my GitHub Repos</title>
      <g clip-path="url(#clip18)" transform="matrix(0.000104987, 0, 0, 0.000104987, 648, 666)" id="imgGitHub--slide1--16">
        <g clip-path="url(#clip20)" transform="matrix(1, 0, 0, 1.01051, -156002, 0)">
          <use xlink:href="#img19" width="100%" height="100%" transform="scale(5141.44)" />
        </g>
      </g>
    </a>
    <a href="https://sessionize.com/john-baluka" id="imgSessionize--slide1--17__LINK" target="_blank">
      <title>See my upcoming Talks and Workshops</title>
      <g clip-path="url(#clip21)" transform="matrix(0.000104987, 0, 0, 0.000104987, 708, 666)" id="imgSessionize--slide1--17">
        <g clip-path="url(#clip23)">
          <use xlink:href="#img22" width="100%" height="100%" transform="matrix(6217.71, 0, 0, 6217.71, -0.5, 0)" />
        </g>
      </g>
    </a>
    <a href="https://www.youtube.com/@JohnBaluka" id="imgYouTube--slide1--18__LINK" target="_blank">
      <title>Goto My YouTube Channel</title>
      <g clip-path="url(#clip24)" transform="matrix(0.000104987, 0, 0, 0.000104987, 520, 669)" id="imgYouTube--slide1--18">
        <g clip-path="url(#clip26)" transform="matrix(1, 0, 0, 1.00388, -45635.5, -106907)">
          <use xlink:href="#img25" width="100%" height="100%" transform="scale(5427.79)" />
        </g>
      </g>
    </a>
    <a href="https://multimodalslides.com/" id="imgMultimodalSlides--slide1--19__LINK" target="_blank">
      <title>Goto MultimodalSlides.com</title>
      <g clip-path="url(#clip27)" transform="matrix(0.000104987, 0, 0, 0.000104987, 1132, 666)" id="imgMultimodalSlides--slide1--19">
        <g clip-path="url(#clip29)" transform="matrix(1.02787, 0, 0, 1, -1, -17356.5)">
          <use xlink:href="#img28" width="100%" height="100%" transform="scale(9279.37)" />
        </g>
      </g>
    </a>
    <text transform="translate(1012.7, 695)" id="rectMultimodalSlides--slide1--20" font-family="Carlito,sans-serif" font-size="21" font-weight="700" style="fill:white;">Created with</text>
    <a href="mailto:John@JohnBaluka.com?subject=[Please%20Provide%20Subject]&body=Please answer the questions below to help reduce spam...%0D%0A%0D%0ADo you want to be added to my mailing list? (Yes, No)%0D%0A%0D%0AHow did you hear about me?  (My Site, YouTube, LinkedIn, GitHub, Sessionize, Search, Word-of-Mouth)%0D%0A%0D%0AHow can I help?%0D%0A" id="rectEmail--slide1--21__LINK">
      <title>Email Me</title>
      <text transform="translate(14.7744, 698)" id="rectEmail--slide1--21" font-family="Carlito,sans-serif" font-size="24" font-weight="400" style="fill:white;">John@JohnBaluka.com</text>
    </a>
    <path d="M14.7744 701.333 L71.0244 701.333 L127.274 701.333 L183.524 701.333 L239.774 701.333 L239.774 703.333 L183.524 703.333 L127.274 703.333 L71.0244 703.333 L14.7744 703.333 Z" id="rectEmail--slide1--22" fill-rule="evenodd" style="fill:white;" />
    <a href="http://movingtoblazor.com/" id="Picture_31--slide1--23__LINK" target="_blank">
      <title>Goto MovingToBlazor.com</title>
      <g clip-path="url(#clip30)" transform="matrix(0.000104987, 0, 0, 0.000104987, 817, 661)" id="Picture_31--slide1--23">
        <g clip-path="url(#clip32)" transform="matrix(1.00557, 0, 0, 1, 0, -14299)">
          <use xlink:href="#img31" width="100%" height="100%" transform="scale(8572.67)" />
        </g>
      </g>
    </a>
    <g clip-path="url(#clip33)" transform="matrix(0.000104987, 0, 0, 0.000104987, 479, 494)" id="Picture_4--slide1--24" class="fragment-off" data-fragment-index="1">
      <g clip-path="url(#clip35)" transform="matrix(1.00171, 0, 0, 1, -308875, 0)">
        <use xlink:href="#img34" width="100%" height="100%" transform="scale(7669.48)" />
      </g>
    </g>
    <text transform="translate(9.6, -22)" id="TitlePlaceholder--slide1--25" font-family="Carlito,sans-serif" font-size="39" font-weight="300">Home</text>
    <text transform="translate(1218.02, -17)" id="SectionNameTextPlaceholder--slide1--26" font-family="Carlito,sans-serif" font-size="21" font-weight="400">Home</text>
    <use xlink:href="#img36" width="100%" height="100%" transform="translate(43, 121)" id="Picture_13--slide1--27" style="fill:none;" />
    <path d="M433.5 181.168 C433.5 149.319 459.319 123.5 491.168 123.5 L1186.83 123.5 C1218.68 123.5 1244.5 149.319 1244.5 181.168 L1244.5 411.832 C1244.5 443.681 1218.68 469.5 1186.83 469.5 L491.168 469.5 C459.319 469.5 433.5 443.681 433.5 411.832 Z" id="Rounded_Rectangle_14--slide1--28" fill-rule="evenodd" stroke-width="1.33333" stroke-miterlimit="8" class="fragment-off" data-fragment-index="3" style="fill:#4F81BD;stroke:#1C334E;" />
    <text transform="translate(459.939, 241)" id="Rounded_Rectangle_14--slide1--29" font-family="Carlito,sans-serif" font-size="64" font-weight="400" class="fragment-off" data-fragment-index="3" style="fill:white;">I help software development</text>
    <text transform="translate(459.939, 318)" id="Rounded_Rectangle_14--slide1--30" font-family="Carlito,sans-serif" font-size="64" font-weight="400" class="fragment-off" data-fragment-index="3" style="fill:white;">teams</text>
    <text transform="translate(633.919, 318)" id="Rounded_Rectangle_14--slide1--31" font-family="Carlito,sans-serif" font-size="64" font-weight="700" class="fragment-off" data-fragment-index="3" style="fill:white;">move forward</text>
    <text transform="translate(1022.91, 318)" id="Rounded_Rectangle_14--slide1--32" font-family="Carlito,sans-serif" font-size="64" font-weight="400" class="fragment-off" data-fragment-index="3" style="fill:white;">within</text>
    <text transform="translate(459.939, 395)" id="Rounded_Rectangle_14--slide1--33" font-family="Carlito,sans-serif" font-size="64" font-weight="400" class="fragment-off" data-fragment-index="3" style="fill:white;">the Microsoft Tech Stack.</text>
    <g clip-path="url(#clip37)" transform="matrix(0.000104987, 0, 0, 0.000104987, 559, 335)" id="Picture_6--slide1--34" class="fragment-off" data-fragment-index="3">
      <g clip-path="url(#clip39)" transform="matrix(1, 0, 0, 1.00194, -197755, -141867)">
        <use xlink:href="#img38" width="100%" height="100%" transform="scale(5110.22)" />
      </g>
    </g>
    <path d="M717.5 508.167 C717.5 496.201 727.201 486.5 739.167 486.5 L1222.83 486.5 C1234.8 486.5 1244.5 496.201 1244.5 508.167 L1244.5 594.833 C1244.5 606.799 1234.8 616.5 1222.83 616.5 L739.167 616.5 C727.201 616.5 717.5 606.799 717.5 594.833 Z" id="Rounded_Rectangle_30--slide1--35" fill-rule="evenodd" stroke-width="1.33333" stroke-miterlimit="8" class="fragment-off" data-fragment-index="1" style="fill:#4F81BD;stroke:#1C334E;" />
    <text transform="translate(732.474, 564)" id="Rounded_Rectangle_30--slide1--36" font-family="Carlito,sans-serif" font-size="37" font-weight="700" class="fragment-off" data-fragment-index="1" style="fill:white;">.NET</text>
    <path d="M822.5 516.667 C822.5 507.186 830.186 499.5 839.667 499.5 L1217.33 499.5 C1226.81 499.5 1234.5 507.186 1234.5 516.667 L1234.5 585.333 C1234.5 594.814 1226.81 602.5 1217.33 602.5 L839.667 602.5 C830.186 602.5 822.5 594.814 822.5 585.333 Z" id="__rectLanguages--slide1--37" fill-rule="evenodd" stroke-width="1.33333" stroke-miterlimit="8" class="fragment-off" data-fragment-index="1" style="fill:#8064A2;stroke:#1C334E;" />
    <text transform="translate(836.589, 561)" id="__rectLanguages--slide1--38" font-family="Carlito,sans-serif" font-size="32" font-weight="400" class="fragment-off" data-fragment-index="1" style="fill:white;">C#, VB, JS, SQL</text>
    <a href="https://dotnet.microsoft.com/en-us/apps/aspnet/web-apps/blazor" id="__Blazor--slide1--39__LINK" target="_blank">
      <title>Learn about Blazor</title>
      <g clip-path="url(#clip40)" transform="matrix(0.000104987, 0, 0, 0.000104987, 1050, 521)" id="__Blazor--slide1--39" class="fragment-off" data-fragment-index="2">
        <g clip-path="url(#clip42)" transform="matrix(1.00383, 0, 0, 1, -1, 0)">
          <use xlink:href="#img41" width="100%" height="100%" transform="scale(5282.05)" />
        </g>
      </g>
    </a>
    <path d="M4 13.3336 C4 7.62651 8.6265 3 14.3336 3 L199.666 3 C205.373 3 210 7.62651 210 13.3336 L210 54.6664 C210 60.3735 205.373 65 199.666 65 L14.3336 65 C8.6265 65 4 60.3735 4 54.6664 Z" id="rectHighlight--slide1--40" fill-rule="evenodd" stroke-width="6" stroke-miterlimit="8" style="fill:none;stroke:#FFC000;" />
    <g clip-path="url(#clip43)" transform="matrix(0.000104987, 0, 0, 0.000104987, 1200, 640)" id="Slide1--slide1--41" style="display:none;">
      <g clip-path="url(#clip45)">
        <use xlink:href="#img44" width="100%" height="100%" transform="matrix(9525, 0, 0, 9525, -1, -0.5)" />
      </g>
    </g>
  </g>
</svg>
