<?xml version="1.0" encoding="utf-8"?>
<!DOCTYPE svg PUBLIC "-//W3C//DTD SVG 1.1//EN" "http://www.w3.org/Graphics/SVG/1.1/DTD/svg11.dtd">
<svg version="1.1" xmlns="http://www.w3.org/2000/svg" xmlns:xlink="http://www.w3.org/1999/xlink" xmlns:xml="http://www.w3.org/XML/1998/namespace" width="1280" height="720" overflow="hidden">
  <defs>
    <clipPath id="clip0">
      <rect x="0" y="0" width="1280" height="720" />
    </clipPath>
    <clipPath id="clip1">
      <rect x="0" y="0" width="1752600" height="419100" />
    </clipPath>
    <image preserveAspectRatio="none" width="247" height="72" xlink:href="images/Slide4--img2.png" id="img2" />
    <clipPath id="clip3">
      <path d="M118220 87469 L1870820 87469 L1870820 505532 L118220 505532 Z" clip-rule="evenodd" fill-rule="evenodd" />
    </clipPath>
    <clipPath id="clip4">
      <rect x="0" y="0" width="1590675" height="390525" />
    </clipPath>
    <image preserveAspectRatio="none" width="275" height="102" xlink:href="images/Slide4--img5.jpg" id="img5" />
    <clipPath id="clip6">
      <rect x="190512" y="175986" width="1590675" height="389425" />
    </clipPath>
    <clipPath id="clip7">
      <rect x="0" y="-1.45519E-11" width="1724025" height="419100" />
    </clipPath>
    <image preserveAspectRatio="none" width="300" height="158" xlink:href="images/Slide4--img8.png" id="img8" />
    <clipPath id="clip9">
      <rect x="0" y="246745" width="1724025" height="418573" />
    </clipPath>
    <clipPath id="clip10">
      <rect x="661" y="9" width="168" height="50" />
    </clipPath>
    <clipPath id="clip11">
      <rect x="661" y="9" width="168" height="51" />
    </clipPath>
    <radialGradient cx="0" cy="0" r="1" spreadMethod="pad" gradientUnits="userSpaceOnUse" gradientTransform="matrix(60.2563, -82.0516, 43.0912, 31.645, 3.90625E-06, 67.9488)" id="fill12">
      <stop offset="0%" stop-color="#BD00FF" />
      <stop offset="25%" stop-color="#BD00FF" />
      <stop offset="88.5417%" stop-color="#534EEB" />
      <stop offset="100%" stop-color="#534EEB" />
    </radialGradient>
    <image preserveAspectRatio="none" width="150" height="55" xlink:href="images/Slide4--img13.jpg" id="img13" />
    <clipPath id="clip14">
      <rect x="0" y="0" width="1376795" height="504825" />
    </clipPath>
    <clipPath id="clip15">
      <rect x="0" y="0" width="447675" height="466725" />
    </clipPath>
    <image preserveAspectRatio="none" width="90" height="135" xlink:href="images/Slide4--img16.png" id="img16" />
    <clipPath id="clip17">
      <rect x="0" y="99000.6" width="447370" height="466725" />
    </clipPath>
    <clipPath id="clip18">
      <rect x="9.31323E-10" y="-9.31323E-10" width="457200" height="457200" />
    </clipPath>
    <image preserveAspectRatio="none" width="150" height="88" xlink:href="images/Slide4--img19.png" id="img19" />
    <clipPath id="clip20">
      <path d="M156002 0 L613202 0 L613202 452447 L156002 452447 Z" clip-rule="evenodd" fill-rule="evenodd" />
    </clipPath>
    <clipPath id="clip21">
      <rect x="9.31323E-10" y="-9.31323E-10" width="447675" height="447675" />
    </clipPath>
    <image preserveAspectRatio="none" width="72" height="72" xlink:href="images/Slide4--img22.png" id="img22" />
    <clipPath id="clip23">
      <rect x="-0.5" y="0" width="447675" height="447675" />
    </clipPath>
    <clipPath id="clip24">
      <rect x="0" y="0" width="533400" height="409575" />
    </clipPath>
    <image preserveAspectRatio="none" width="115" height="115" xlink:href="images/Slide4--img25.png" id="img25" />
    <clipPath id="clip26">
      <path d="M45634.9 106494 L579035 106494 L579035 514487 L45634.9 514487 Z" clip-rule="evenodd" fill-rule="evenodd" />
    </clipPath>
    <clipPath id="clip27">
      <rect x="0" y="-9.31323E-10" width="1276350" height="419100" />
    </clipPath>
    <image preserveAspectRatio="none" width="140" height="63" xlink:href="images/Slide4--img28.png" id="img28" />
    <clipPath id="clip29">
      <rect x="0" y="17356.8" width="1241743" height="419100" />
    </clipPath>
    <clipPath id="clip30">
      <rect x="0" y="-9.31323E-10" width="1543050" height="542925" />
    </clipPath>
    <image preserveAspectRatio="none" width="179" height="65" xlink:href="images/Slide4--img31.png" id="img31" />
    <clipPath id="clip32">
      <rect x="0" y="14298.4" width="1534507" height="542925" />
    </clipPath>
    <clipPath id="clip33">
      <rect x="0" y="0" width="5791200" height="3905250" />
    </clipPath>
    <image preserveAspectRatio="none" width="1040" height="701" xlink:href="images/Slide4--img34.jpg" id="img34" />
    <clipPath id="clip35">
      <rect x="0" y="0" width="5791200" height="3903492" />
    </clipPath>
    <clipPath id="clip36">
      <rect x="-9.31323E-10" y="0" width="5943600" height="4371975" />
    </clipPath>
    <image preserveAspectRatio="none" width="1234" height="870" xlink:href="images/Slide4--img37.png" id="img37" />
    <clipPath id="clip38">
      <rect x="0" y="0" width="5943600" height="4370445" />
    </clipPath>
    <clipPath id="clip39">
      <rect x="0" y="0" width="1295400" height="476250" />
    </clipPath>
    <clipPath id="clip40">
      <rect x="0" y="0" width="1295400" height="474980" />
    </clipPath>
    <radialGradient cx="0" cy="0" r="1" spreadMethod="pad" gradientUnits="userSpaceOnUse" gradientTransform="matrix(93.9999, -128, 67.2222, 49.3662, 6.09375E-06, 106)" id="fill41">
      <stop offset="0%" stop-color="#BD00FF" />
      <stop offset="25%" stop-color="#BD00FF" />
      <stop offset="88.5417%" stop-color="#534EEB" />
      <stop offset="100%" stop-color="#534EEB" />
    </radialGradient>
    <image preserveAspectRatio="none" width="75" height="65" xlink:href="images/Slide4--img42.png" id="img42" />
    <clipPath id="clip43">
      <rect x="0" y="0" width="659423" height="571500" />
    </clipPath>
    <image preserveAspectRatio="none" width="64" height="64" xlink:href="images/Slide4--img44.png" id="img44" />
    <clipPath id="clip45">
      <rect x="0" y="0" width="457200" height="457200" />
    </clipPath>
    <clipPath id="clip46">
      <rect x="0" y="0" width="457200" height="457200" />
    </clipPath>
    <clipPath id="clip47">
      <path d="M156002 0 L613202 0 L613202 452447 L156002 452447 Z" clip-rule="evenodd" fill-rule="evenodd" />
    </clipPath>
    <clipPath id="clip48">
      <rect x="0" y="0" width="609600" height="609600" />
    </clipPath>
    <image preserveAspectRatio="none" width="64" height="64" xlink:href="images/Slide4--img49.png" id="img49" />
    <clipPath id="clip50">
      <rect x="-1" y="-0.5" width="609600" height="609600" />
    </clipPath>
  </defs>
  <g clip-path="url(#clip0)" id="gSlide--slide4">
    <rect x="0" y="0" width="1280" height="720" id="rectSlide--slide4--0" style="fill:white;" />
    <rect x="0" y="660" width="1280" height="60" id="BottomRectangle--slide4--1" style="fill:#8064A2;" />
    <rect x="0" y="0" width="1280" height="67" id="TopRectangle--slide4--2" style="fill:#8064A2;" />
    <a href="#slide1" id="rectJohnBaluka--slide4--3__LINK">
      <path d="M5.50005 13.8335 C5.50005 8.12651 10.1265 3.50005 15.8335 3.50005 L202.167 3.50005 C207.874 3.50005 212.5 8.12651 212.5 13.8335 L212.5 55.1666 C212.5 60.8736 207.874 65.5001 202.167 65.5001 L15.8335 65.5001 C10.1265 65.5001 5.50005 60.8736 5.50005 55.1666 Z" id="rectJohnBaluka--slide4--3" fill-rule="evenodd" stroke-width="1.33333" stroke-miterlimit="8" style="fill:white;stroke:#4F81BD;" />
    </a>
    <a href="#slide2" id="rectMicrosoft--slide4--4__LINK">
      <path d="M218.5 13.8336 C218.5 8.12656 223.127 3.50005 228.834 3.50005 L414.166 3.50005 C419.874 3.50005 424.5 8.12656 424.5 13.8336 L424.5 55.1665 C424.5 60.8735 419.874 65.5 414.166 65.5 L228.834 65.5 C223.127 65.5 218.5 60.8735 218.5 55.1665 Z" id="rectMicrosoft--slide4--4" fill-rule="evenodd" stroke-width="1.33333" stroke-miterlimit="8" style="fill:white;stroke:#4F81BD;" />
    </a>
    <a href="#slide3" id="rectRadzen--slide4--5__LINK">
      <path d="M431.5 13.8336 C431.5 8.12656 436.127 3.50005 441.834 3.50005 L627.167 3.50005 C632.874 3.50005 637.5 8.12656 637.5 13.8336 L637.5 55.1665 C637.5 60.8735 632.874 65.5 627.167 65.5 L441.834 65.5 C436.127 65.5 431.5 60.8735 431.5 55.1665 Z" id="rectRadzen--slide4--5" fill-rule="evenodd" stroke-width="1.33333" stroke-miterlimit="8" style="fill:white;stroke:#4F81BD;" />
    </a>
    <a href="#slide4" id="rectAccess2Blazor--slide4--6__LINK">
      <path d="M644.5 13.8336 C644.5 8.12656 649.127 3.50005 654.834 3.50005 L840.167 3.50005 C845.874 3.50005 850.5 8.12656 850.5 13.8336 L850.5 55.1665 C850.5 60.8735 845.874 65.5 840.167 65.5 L654.834 65.5 C649.127 65.5 644.5 60.8735 644.5 55.1665 Z" id="rectAccess2Blazor--slide4--6" fill-rule="evenodd" stroke-width="1.33333" stroke-miterlimit="8" style="fill:white;stroke:#4F81BD;" />
    </a>
    <a href="#slide5" id="rectOqtane--slide4--7__LINK">
      <path d="M856.5 13.8335 C856.5 8.12651 861.127 3.50005 866.834 3.50005 L1053.17 3.50005 C1058.87 3.50005 1063.5 8.12651 1063.5 13.8335 L1063.5 55.1666 C1063.5 60.8736 1058.87 65.5001 1053.17 65.5001 L866.834 65.5001 C861.127 65.5001 856.5 60.8736 856.5 55.1666 Z" id="rectOqtane--slide4--7" fill-rule="evenodd" stroke-width="1.33333" stroke-miterlimit="8" style="fill:white;stroke:#4F81BD;" />
    </a>
    <a href="#slide6" id="rectContact--slide4--8__LINK">
      <path d="M1069.5 13.8336 C1069.5 8.12656 1074.13 3.50005 1079.83 3.50005 L1265.17 3.50005 C1270.87 3.50005 1275.5 8.12656 1275.5 13.8336 L1275.5 55.1665 C1275.5 60.8735 1270.87 65.5 1265.17 65.5 L1079.83 65.5 C1074.13 65.5 1069.5 60.8735 1069.5 55.1665 Z" id="rectContact--slide4--8" fill-rule="evenodd" stroke-width="1.33333" stroke-miterlimit="8" style="fill:white;stroke:#4F81BD;" />
      <text transform="translate(1102.47, 48)" id="rectContact--slide4--9" font-family="Carlito,sans-serif" font-size="43" font-weight="700" style="fill:#8064A2;">Options</text>
    </a>
    <a href="#slide1" id="imgJohnBaluka--slide4--10__LINK">
      <g clip-path="url(#clip1)" transform="matrix(0.000104987, 0, 0, 0.000104987, 15, 13)" id="imgJohnBaluka--slide4--10">
        <g clip-path="url(#clip3)" transform="matrix(1, 0, 0, 1.00248, -118220, -87686)">
          <use xlink:href="#img2" width="100%" height="100%" transform="scale(8037.36)" />
        </g>
      </g>
    </a>
    <a href="#slide2" id="imgMicrosoft--slide4--11__LINK">
      <g clip-path="url(#clip4)" transform="matrix(0.000104987, 0, 0, 0.000104987, 238, 15)" id="imgMicrosoft--slide4--11">
        <g clip-path="url(#clip6)" transform="matrix(1, 0, 0, 1.00282, -190512, -176483)">
          <use xlink:href="#img5" width="100%" height="100%" transform="scale(7147.87)" />
        </g>
      </g>
    </a>
    <a href="#slide5" id="imgOqtane--slide4--12__LINK">
      <g clip-path="url(#clip7)" transform="matrix(0.000104987, 0, 0, 0.000104987, 869, 12)" id="imgOqtane--slide4--12">
        <g clip-path="url(#clip9)" transform="matrix(1, 0, 0, 1.00126, -0.5, -247056)">
          <use xlink:href="#img8" width="100%" height="100%" transform="scale(5746.75)" />
        </g>
      </g>
    </a>
    <a href="#slide4" id="imgRadzen--slide4--13__LINK">
      <g clip-path="url(#clip10)" id="imgRadzen--slide4--13">
        <g clip-path="url(#clip11)">
          <g>
            <path d="M25 50 C38.8071 50 50 38.8071 50 25 C50 11.1929 38.8071 0 25 0 C11.1929 0 0 11.1929 0 25 C0 34.6323 5.44757 42.9925 13.4299 47.1673 L13.4454 46.875 L12.8671 35.9375 L19.4545 35.9375 C19.4545 35.9375 18.8204 40.9398 18.8204 46.875 C18.8204 47.6838 18.8327 48.4752 18.8541 49.2389 C20.8204 49.7359 22.8793 50 25 50 Z M27.1223 16.5284 C24.5061 18.0389 23.1255 20.5584 22.5877 21.7566 L18.8321 24.8255 C18.8245 24.37 18.8204 23.9068 18.8204 23.4375 C18.8204 17.5023 19.4848 12.5 19.4848 12.5 L12.8671 12.5 C12.8671 12.5 13.4454 17.5023 13.4454 23.4375 C13.4454 29.3727 12.8671 34.375 12.8671 34.375 L19.4848 34.375 C19.4848 34.375 18.9902 30.6507 18.8545 25.8162 L19.4652 25.3171 C20.0068 26.0504 21.465 27.6843 24.0877 28.3484 C27.5186 29.2171 33.7996 28.6429 33.7996 28.6429 C33.7996 28.6429 28.4634 25.4852 25.0325 24.6166 C23.0564 24.1162 21.4279 24.3032 20.4021 24.5516 L22.9511 22.4686 C24.1734 22.5063 26.9762 22.4123 29.7298 21.0446 C33.393 19.2248 40.5838 11.8825 40.5838 11.8825 C40.5838 11.8825 30.6468 14.4935 27.1223 16.5284 Z" transform="matrix(1.00347, 7.10543E-17, 0, 1, 661, 9)" fill-rule="evenodd" style="fill:url(&quot;#fill12&quot;);" />
            <path d="M94.2688 33.5132 L94.2664 33.5111 C92.9016 31.795 92.2305 29.4114 92.2305 26.3825 C92.2305 24.8882 92.4422 23.5379 92.8695 22.3337 L92.8703 22.3309 C93.3211 21.132 93.9109 20.1154 94.6422 19.2843 C95.3727 18.4552 96.2047 17.8125 97.1398 17.3584 L97.1414 17.3576 C98.1016 16.9038 99.0891 16.6759 100.103 16.6759 C101.158 16.6759 102.062 16.8638 102.808 17.2483 C103.436 17.5511 104.062 17.9548 104.685 18.4579 L104.556 15.9296 L104.556 10.7144 L109.16 10.7144 L109.16 35.6087 L105.321 35.6087 L105.034 33.7116 C104.38 34.3416 103.627 34.8809 102.774 35.3302 C101.862 35.8111 100.896 36.0521 99.8805 36.0521 C97.5383 36.0521 95.6617 35.207 94.2688 33.5132 Z M102.784 20.855 L102.781 20.8543 C102.208 20.6396 101.624 20.5327 101.028 20.5327 C99.9031 20.5327 98.9516 21.0204 98.1664 22.0186 C97.3844 23.0114 96.9813 24.4457 96.9813 26.3455 C96.9813 28.2991 97.325 29.7614 97.9875 30.7554 C98.668 31.7143 99.6367 32.1954 100.917 32.1954 C102.194 32.1954 103.406 31.5682 104.556 30.2709 L104.556 21.953 C103.948 21.4245 103.356 21.0609 102.784 20.855 Z M60.7142 17.1192 L64.562 17.1192 L64.8423 20.1636 C65.4655 19.0891 66.211 18.2548 67.082 17.6671 C68.0189 17.0101 68.9903 16.6759 69.9934 16.6759 L71.8692 16.6759 L71.8692 20.8282 L70.1384 20.8282 C69.0375 20.8282 68.1746 20.9677 67.281 21.6088 L67.2782 21.6109 C66.5335 22.1218 65.876 23.0373 65.3175 24.3845 L65.3175 35.6087 L60.7142 35.6087 Z M112.397 35.6087 L112.397 33.0907 L120.828 20.8282 L112.397 20.8282 L112.397 17.1192 L126.661 17.1192 L126.661 19.6002 L118.266 31.8629 L126.661 31.8629 L126.661 35.6087 Z M147.562 35.6087 L147.562 17.1192 L151.405 17.1192 L151.693 19.4937 C152.483 18.7446 153.33 18.097 154.234 17.5507 L154.235 17.5496 C155.228 16.9655 156.37 16.6759 157.655 16.6759 C159.643 16.6759 161.123 17.3188 162.052 18.6327 C162.97 19.9057 163.417 21.7207 163.417 24.0545 L163.417 35.6087 L158.814 35.6087 L158.814 24.6088 C158.814 23.1127 158.591 22.1012 158.18 21.5323 C157.779 20.9759 157.113 20.6805 156.137 20.6805 C155.378 20.6805 154.708 20.8695 154.12 21.2445 L154.119 21.2454 C153.555 21.5977 152.903 22.1261 152.165 22.835 L152.165 35.6087 Z M75.4419 34.5625 L75.4403 34.5609 C74.4082 33.5382 73.8973 32.1982 73.8973 30.558 C73.8973 29.5729 74.1014 28.6939 74.5146 27.9263 L74.5157 27.9245 C74.955 27.1309 75.6241 26.4577 76.515 25.9029 L76.517 25.9018 C77.4292 25.3493 78.5641 24.8882 79.9172 24.5157 L79.918 24.5155 C81.2563 24.1539 82.8391 23.875 84.6648 23.6782 C84.6336 23.2832 84.5648 22.9079 84.4594 22.552 L84.4578 22.5462 L84.4562 22.5405 C84.3625 22.1223 84.1875 21.7668 83.9344 21.4696 L83.9297 21.4643 L83.925 21.4584 C83.6969 21.1418 83.3883 20.9027 82.9938 20.7416 L82.9891 20.74 L82.9852 20.7382 C82.5922 20.5546 82.0969 20.4587 81.4922 20.4587 C80.6203 20.4587 79.7594 20.6266 78.9086 20.9636 C78.0725 21.3048 77.2477 21.7195 76.4346 22.2077 L76.2805 22.3004 L74.5485 19.1543 L74.687 19.0673 C75.7177 18.4196 76.8723 17.8604 78.15 17.3886 C79.4391 16.9129 80.8273 16.6759 82.3125 16.6759 C84.6344 16.6759 86.3938 17.3646 87.5547 18.7698 C88.7344 20.1429 89.3109 22.1229 89.3109 24.6827 L89.3109 35.6087 L85.4453 35.6087 L85.1539 33.6598 C84.3531 34.32 83.4938 34.8773 82.5773 35.3316 C81.6312 35.8127 80.5977 36.0521 79.4781 36.0521 C77.8255 36.0521 76.4743 35.5596 75.4419 34.5625 Z M82.7883 31.8846 C83.3781 31.5573 84.0078 31.0907 84.6758 30.4818 L84.6758 26.6889 C83.5234 26.8332 82.5539 27.0209 81.7648 27.2509 C80.9281 27.4946 80.2602 27.7727 79.7555 28.0821 L79.7531 28.0837 L79.75 28.0852 C79.2469 28.3702 78.9008 28.6952 78.6969 29.0546 C78.4875 29.4232 78.3836 29.8127 78.3836 30.2254 C78.3836 31.0023 78.6195 31.533 79.0594 31.86 C79.5203 32.2025 80.1156 32.3802 80.8586 32.3802 C81.5766 32.3802 82.2172 32.2145 82.7852 31.8861 Z M133.826 35.4125 L133.823 35.4113 C132.716 34.9593 131.746 34.3184 130.915 33.4889 C130.083 32.6582 129.429 31.6527 128.952 30.4752 L128.951 30.4711 C128.498 29.2659 128.273 27.9021 128.273 26.3825 C128.273 24.8861 128.511 23.5337 128.989 22.3279 C129.465 21.1279 130.092 20.1109 130.874 19.28 L130.877 19.278 C131.681 18.4495 132.6 17.8082 133.633 17.3555 C134.666 16.9029 135.726 16.6759 136.812 16.6759 C138.066 16.6759 139.176 16.8885 140.14 17.319 C141.101 17.7482 141.9 18.3554 142.535 19.1407 C143.193 19.9239 143.684 20.8564 144.011 21.935 C144.337 23.0127 144.499 24.1877 144.499 25.4587 C144.499 25.8821 144.43 26.6584 144.43 26.6584 C144.43 26.6584 144.362 27.3329 144.31 27.5655 L144.28 27.7013 L132.79 27.7013 C133.004 29.2018 133.549 30.3521 134.413 31.1695 C135.338 31.998 136.516 32.4171 137.959 32.4171 C138.732 32.4171 139.441 32.3088 140.087 32.0939 C140.765 31.8521 141.431 31.5255 142.087 31.1134 L142.244 31.0152 L143.851 33.978 L143.718 34.0654 C142.841 34.6404 141.866 35.1145 140.793 35.4882 C139.712 35.8645 138.583 36.0521 137.404 36.0521 C136.127 36.0521 134.933 35.8395 133.826 35.4125 Z M139.561 21.4616 L139.559 21.4591 C139.008 20.7021 138.141 20.3109 136.923 20.3109 C135.883 20.3109 134.975 20.675 134.191 21.4096 C133.45 22.1048 132.966 23.1193 132.755 24.4725 L140.45 24.4725 C140.425 23.1766 140.123 22.18 139.562 21.4639 Z" transform="matrix(1.00347, 0, 0, 1, 661, 9)" fill-rule="evenodd" style="fill:#050A23;" />
            <path d="M175.005 35.6249 L175.005 10.9124 L181.68 10.9124 C184.18 10.9124 186.167 11.3999 187.642 12.3749 C189.117 13.3249 189.855 14.8374 189.855 16.9124 C189.855 18.2124 189.53 19.3499 188.88 20.3249 C188.23 21.2749 187.28 21.9374 186.03 22.3124 L186.03 22.4624 C187.63 22.7124 188.917 23.3499 189.892 24.3749 C190.867 25.3749 191.355 26.7249 191.355 28.4249 C191.355 30.7999 190.517 32.5999 188.842 33.8249 C187.192 35.0249 184.967 35.6249 182.167 35.6249 Z M176.73 21.7874 L181.005 21.7874 C183.53 21.7874 185.342 21.3749 186.442 20.5499 C187.567 19.6999 188.13 18.5499 188.13 17.0999 C188.13 15.3499 187.542 14.1249 186.367 13.4249 C185.192 12.6999 183.467 12.3374 181.192 12.3374 L176.73 12.3374 Z M176.73 34.1999 L181.717 34.1999 C184.167 34.1999 186.105 33.7374 187.53 32.8124 C188.955 31.8874 189.667 30.4374 189.667 28.4624 C189.667 26.6874 188.967 25.3749 187.567 24.5249 C186.192 23.6499 184.242 23.2124 181.717 23.2124 L176.73 23.2124 Z" transform="matrix(1.00347, 0, 0, 1, 661, 9)" style="fill:#050A23;" />
            <path d="M197.959 36.0749 C196.484 36.0749 195.747 35.1249 195.747 33.2249 L195.747 8.66242 L197.397 8.66242 L197.397 33.4499 C197.397 34.2249 197.659 34.6124 198.184 34.6124 L198.447 34.6124 C198.547 34.5874 198.684 34.5624 198.859 34.5374 L199.159 35.8874 C198.984 35.9374 198.809 35.9749 198.634 35.9999 C198.459 36.0499 198.234 36.0749 197.959 36.0749 Z" transform="matrix(1.00347, 0, 0, 1, 661, 9)" style="fill:#050A23;" />
            <path d="M207.834 36.0749 C206.409 36.0749 205.184 35.6749 204.159 34.8749 C203.134 34.0749 202.621 32.8249 202.621 31.1249 C202.621 29.1249 203.559 27.6124 205.434 26.5874 C207.309 25.5374 210.246 24.7874 214.246 24.3374 C214.271 23.4124 214.171 22.5249 213.946 21.6749 C213.721 20.7999 213.296 20.0749 212.671 19.4999 C212.071 18.9249 211.171 18.6374 209.971 18.6374 C208.771 18.6374 207.671 18.8749 206.671 19.3499 C205.671 19.8249 204.859 20.2874 204.234 20.7374 L203.484 19.4999 C203.909 19.1999 204.459 18.8749 205.134 18.5249 C205.809 18.1499 206.571 17.8374 207.421 17.5874 C208.296 17.3124 209.221 17.1749 210.196 17.1749 C211.621 17.1749 212.746 17.4874 213.571 18.1124 C214.396 18.7374 214.984 19.5749 215.334 20.6249 C215.709 21.6499 215.896 22.8124 215.896 24.1124 L215.896 35.6249 L214.471 35.6249 L214.321 33.2999 L214.209 33.2999 C213.284 34.0249 212.284 34.6749 211.209 35.2499 C210.134 35.7999 209.009 36.0749 207.834 36.0749 Z M208.134 34.6499 C209.159 34.6499 210.146 34.3999 211.096 33.8999 C212.071 33.3999 213.121 32.6749 214.246 31.7249 L214.246 25.6124 C211.771 25.9124 209.809 26.2999 208.359 26.7749 C206.909 27.2499 205.871 27.8499 205.246 28.5749 C204.621 29.2749 204.309 30.0999 204.309 31.0499 C204.309 32.3499 204.684 33.2749 205.434 33.8249 C206.209 34.3749 207.109 34.6499 208.134 34.6499 Z" transform="matrix(1.00347, 0, 0, 1, 661, 9)" style="fill:#050A23;" />
            <path d="M219.129 35.6249 L219.129 34.7249 L229.779 19.0499 L220.291 19.0499 L220.291 17.6249 L231.916 17.6249 L231.916 18.4874 L221.304 34.1624 L232.291 34.1624 L232.291 35.6249 Z" transform="matrix(1.00347, 0, 0, 1, 661, 9)" style="fill:#050A23;" />
            <path d="M242.173 36.0749 C240.748 36.0749 239.423 35.7124 238.198 34.9874 C236.973 34.2374 235.986 33.1624 235.236 31.7624 C234.486 30.3374 234.111 28.6374 234.111 26.6624 C234.111 24.6374 234.486 22.9249 235.236 21.5249 C235.986 20.0999 236.973 19.0249 238.198 18.2999 C239.423 17.5499 240.748 17.1749 242.173 17.1749 C243.623 17.1749 244.961 17.5499 246.186 18.2999 C247.411 19.0249 248.398 20.0999 249.148 21.5249 C249.898 22.9249 250.273 24.6374 250.273 26.6624 C250.273 28.6374 249.898 30.3374 249.148 31.7624 C248.398 33.1624 247.411 34.2374 246.186 34.9874 C244.961 35.7124 243.623 36.0749 242.173 36.0749 Z M242.173 34.6124 C243.398 34.6124 244.486 34.2749 245.436 33.5999 C246.386 32.9249 247.136 31.9999 247.686 30.8249 C248.261 29.6249 248.548 28.2374 248.548 26.6624 C248.548 25.0624 248.261 23.6624 247.686 22.4624 C247.136 21.2624 246.386 20.3249 245.436 19.6499 C244.486 18.9749 243.398 18.6374 242.173 18.6374 C240.973 18.6374 239.886 18.9749 238.911 19.6499 C237.961 20.3249 237.211 21.2624 236.661 22.4624 C236.111 23.6624 235.836 25.0624 235.836 26.6624 C235.836 28.2374 236.111 29.6249 236.661 30.8249 C237.211 31.9999 237.961 32.9249 238.911 33.5999 C239.886 34.2749 240.973 34.6124 242.173 34.6124 Z" transform="matrix(1.00347, 0, 0, 1, 661, 9)" style="fill:#050A23;" />
            <path d="M254.93 35.6249 L254.93 17.6249 L256.355 17.6249 L256.505 20.9624 L256.617 20.9624 C257.217 19.8624 257.942 18.9624 258.792 18.2624 C259.667 17.5374 260.642 17.1749 261.717 17.1749 C262.067 17.1749 262.38 17.1999 262.655 17.2499 C262.93 17.2999 263.217 17.3999 263.517 17.5499 L263.142 19.0499 C262.842 18.9249 262.58 18.8499 262.355 18.8249 C262.13 18.7749 261.842 18.7499 261.492 18.7499 C260.692 18.7499 259.842 19.0999 258.942 19.7999 C258.067 20.4749 257.28 21.6624 256.58 23.3624 L256.58 35.6249 Z" transform="matrix(1.00347, 0, 0, 1, 661, 9)" style="fill:#050A23;" />
            <path d="M279.477 36.0749 C277.677 36.0749 276.077 35.7249 274.677 35.0249 C273.277 34.3249 272.089 33.4374 271.114 32.3624 L272.239 31.1624 C273.139 32.1624 274.214 32.9749 275.464 33.5999 C276.714 34.1999 278.052 34.4999 279.477 34.4999 C281.377 34.4999 282.877 34.0374 283.977 33.1124 C285.077 32.1874 285.627 30.9999 285.627 29.5499 C285.627 28.5249 285.427 27.6999 285.027 27.0749 C284.627 26.4499 284.089 25.9374 283.414 25.5374 C282.764 25.1124 282.026 24.7249 281.202 24.3749 L277.452 22.6874 C276.752 22.3624 276.002 21.9624 275.202 21.4874 C274.427 20.9874 273.764 20.3499 273.214 19.5749 C272.689 18.7749 272.427 17.7624 272.427 16.5374 C272.427 15.3374 272.739 14.2874 273.364 13.3874 C273.989 12.4624 274.839 11.7499 275.914 11.2499 C277.014 10.7249 278.252 10.4624 279.627 10.4624 C281.102 10.4624 282.427 10.7624 283.602 11.3624 C284.777 11.9374 285.739 12.6249 286.489 13.4249 L285.514 14.5499 C284.789 13.7999 283.939 13.1999 282.964 12.7499 C281.989 12.2749 280.877 12.0374 279.627 12.0374 C278.002 12.0374 276.677 12.4374 275.652 13.2374 C274.652 14.0374 274.152 15.1124 274.152 16.4624 C274.152 17.4124 274.377 18.1874 274.827 18.7874 C275.302 19.3874 275.863 19.8749 276.514 20.2499 C277.188 20.6249 277.826 20.9499 278.426 21.2249 L282.177 22.8749 C283.102 23.2749 283.952 23.7499 284.727 24.2999 C285.527 24.8249 286.164 25.4999 286.639 26.3249 C287.139 27.1249 287.389 28.1624 287.389 29.4374 C287.389 30.6874 287.064 31.8249 286.414 32.8499 C285.764 33.8499 284.839 34.6374 283.639 35.2124 C282.464 35.7874 281.077 36.0749 279.477 36.0749 Z" transform="matrix(1.00347, 0, 0, 1, 661, 9)" style="fill:#050A23;" />
            <path d="M295.752 36.0749 C294.002 36.0749 292.814 35.5749 292.189 34.5749 C291.564 33.5499 291.252 32.2374 291.252 30.6374 L291.252 19.0499 L288.439 19.0499 L288.439 17.7749 L291.289 17.6249 L291.514 12.4124 L292.939 12.4124 L292.939 17.6249 L298.152 17.6249 L298.152 19.0499 L292.939 19.0499 L292.939 30.7874 C292.939 31.9374 293.139 32.8624 293.539 33.5624 C293.939 34.2624 294.752 34.6124 295.977 34.6124 C296.327 34.6124 296.702 34.5624 297.102 34.4624 C297.527 34.3374 297.902 34.1999 298.227 34.0499 L298.677 35.3999 C298.152 35.5749 297.614 35.7249 297.064 35.8499 C296.539 35.9999 296.102 36.0749 295.752 36.0749 Z" transform="matrix(1.00347, 0, 0, 1, 661, 9)" style="fill:#050A23;" />
            <path d="M306.946 36.0749 C305.096 36.0749 303.721 35.5124 302.821 34.3874 C301.946 33.2374 301.509 31.4999 301.509 29.1749 L301.509 17.6249 L303.159 17.6249 L303.159 28.9499 C303.159 30.8499 303.471 32.2624 304.096 33.1874 C304.746 34.1124 305.796 34.5749 307.246 34.5749 C308.321 34.5749 309.296 34.2874 310.171 33.7124 C311.046 33.1124 312.009 32.1749 313.059 30.8999 L313.059 17.6249 L314.709 17.6249 L314.709 35.6249 L313.321 35.6249 L313.134 32.6249 L313.059 32.6249 C312.184 33.6499 311.259 34.4874 310.284 35.1374 C309.309 35.7624 308.196 36.0749 306.946 36.0749 Z" transform="matrix(1.00347, 0, 0, 1, 661, 9)" style="fill:#050A23;" />
            <path d="M326.832 36.0749 C324.557 36.0749 322.745 35.2624 321.395 33.6374 C320.045 32.0124 319.37 29.6874 319.37 26.6624 C319.37 24.7124 319.732 23.0374 320.457 21.6374 C321.207 20.2124 322.182 19.1124 323.382 18.3374 C324.607 17.5624 325.932 17.1749 327.357 17.1749 C328.457 17.1749 329.407 17.3749 330.207 17.7749 C331.032 18.1499 331.895 18.6874 332.795 19.3874 L332.72 16.0874 L332.72 8.66242 L334.37 8.66242 L334.37 35.6249 L332.945 35.6249 L332.795 33.2999 L332.682 33.2999 C331.957 34.0249 331.095 34.6749 330.095 35.2499 C329.12 35.7999 328.032 36.0749 326.832 36.0749 Z M327.057 34.6124 C328.057 34.6124 329.007 34.3624 329.907 33.8624 C330.832 33.3374 331.77 32.5999 332.72 31.6499 L332.72 20.9624 C331.77 20.1124 330.87 19.5124 330.02 19.1624 C329.195 18.8124 328.345 18.6374 327.47 18.6374 C326.27 18.6374 325.195 18.9999 324.245 19.7249 C323.295 20.4249 322.532 21.3749 321.957 22.5749 C321.407 23.7749 321.132 25.1374 321.132 26.6624 C321.132 29.0374 321.645 30.9624 322.67 32.4374 C323.695 33.8874 325.157 34.6124 327.057 34.6124 Z" transform="matrix(1.00347, 0, 0, 1, 661, 9)" style="fill:#050A23;" />
            <path d="M340.517 35.6249 L340.517 17.6249 L342.167 17.6249 L342.167 35.6249 Z M341.38 13.2749 C340.98 13.2749 340.642 13.1374 340.367 12.8624 C340.092 12.5874 339.955 12.2124 339.955 11.7374 C339.955 11.3124 340.092 10.9624 340.367 10.6874 C340.642 10.4124 340.98 10.2749 341.38 10.2749 C341.805 10.2749 342.142 10.4124 342.392 10.6874 C342.667 10.9624 342.805 11.3124 342.805 11.7374 C342.805 12.2124 342.667 12.5874 342.392 12.8624 C342.142 13.1374 341.805 13.2749 341.38 13.2749 Z" transform="matrix(1.00347, 0, 0, 1, 661, 9)" style="fill:#050A23;" />
            <path d="M354.899 36.0749 C353.474 36.0749 352.149 35.7124 350.924 34.9874 C349.699 34.2374 348.712 33.1624 347.962 31.7624 C347.212 30.3374 346.837 28.6374 346.837 26.6624 C346.837 24.6374 347.212 22.9249 347.962 21.5249 C348.712 20.0999 349.699 19.0249 350.924 18.2999 C352.149 17.5499 353.474 17.1749 354.899 17.1749 C356.349 17.1749 357.687 17.5499 358.912 18.2999 C360.137 19.0249 361.124 20.0999 361.874 21.5249 C362.624 22.9249 362.999 24.6374 362.999 26.6624 C362.999 28.6374 362.624 30.3374 361.874 31.7624 C361.124 33.1624 360.137 34.2374 358.912 34.9874 C357.687 35.7124 356.349 36.0749 354.899 36.0749 Z M354.899 34.6124 C356.124 34.6124 357.212 34.2749 358.162 33.5999 C359.112 32.9249 359.862 31.9999 360.412 30.8249 C360.987 29.6249 361.274 28.2374 361.274 26.6624 C361.274 25.0624 360.987 23.6624 360.412 22.4624 C359.862 21.2624 359.112 20.3249 358.162 19.6499 C357.212 18.9749 356.124 18.6374 354.899 18.6374 C353.699 18.6374 352.612 18.9749 351.637 19.6499 C350.687 20.3249 349.937 21.2624 349.387 22.4624 C348.837 23.6624 348.562 25.0624 348.562 26.6624 C348.562 28.2374 348.837 29.6249 349.387 30.8249 C349.937 31.9999 350.687 32.9249 351.637 33.5999 C352.612 34.2749 353.699 34.6124 354.899 34.6124 Z" transform="matrix(1.00347, 0, 0, 1, 661, 9)" style="fill:#050A23;" />
          </g>
        </g>
      </g>
    </a>
    <a href="#slide3" id="imgBlazor--slide4--14__LINK">
      <g transform="matrix(0.000104987, 0, 0, 0.000104987, 457, 8)" id="imgBlazor--slide4--14">
        <g clip-path="url(#clip14)" transform="scale(1.01698, 1)">
          <use xlink:href="#img13" width="100%" height="100%" transform="scale(9178.64)" />
        </g>
      </g>
    </a>
    <a href="https://www.linkedin.com/in/johnbaluka/" id="imgLinkedIn--slide4--15__LINK" target="_blank">
      <title>Connect on LinkedIn</title>
      <g clip-path="url(#clip15)" transform="matrix(0.000104987, 0, 0, 0.000104987, 587, 665)" id="imgLinkedIn--slide4--15">
        <g clip-path="url(#clip17)" transform="matrix(1.00068, 0, 0, 1, 0, -99000.9)">
          <use xlink:href="#img16" width="100%" height="100%" transform="scale(4970.77)" />
        </g>
      </g>
    </a>
    <a href="https://github.com/JohnBaluka" id="imgGitHub--slide4--16__LINK" target="_blank">
      <title>See my GitHub Repos</title>
      <g clip-path="url(#clip18)" transform="matrix(0.000104987, 0, 0, 0.000104987, 648, 666)" id="imgGitHub--slide4--16">
        <g clip-path="url(#clip20)" transform="matrix(1, 0, 0, 1.01051, -156002, 0)">
          <use xlink:href="#img19" width="100%" height="100%" transform="scale(5141.44)" />
        </g>
      </g>
    </a>
    <a href="https://sessionize.com/john-baluka" id="imgSessionize--slide4--17__LINK" target="_blank">
      <title>See my upcoming Talks and Workshops</title>
      <g clip-path="url(#clip21)" transform="matrix(0.000104987, 0, 0, 0.000104987, 708, 666)" id="imgSessionize--slide4--17">
        <g clip-path="url(#clip23)">
          <use xlink:href="#img22" width="100%" height="100%" transform="matrix(6217.71, 0, 0, 6217.71, -0.5, 0)" />
        </g>
      </g>
    </a>
    <a href="https://www.youtube.com/@JohnBaluka" id="imgYouTube--slide4--18__LINK" target="_blank">
      <title>Goto My YouTube Channel</title>
      <g clip-path="url(#clip24)" transform="matrix(0.000104987, 0, 0, 0.000104987, 520, 669)" id="imgYouTube--slide4--18">
        <g clip-path="url(#clip26)" transform="matrix(1, 0, 0, 1.00388, -45635.5, -106907)">
          <use xlink:href="#img25" width="100%" height="100%" transform="scale(5427.79)" />
        </g>
      </g>
    </a>
    <a href="https://multimodalslides.com/" id="imgMultimodalSlides--slide4--19__LINK" target="_blank">
      <title>Goto MultimodalSlides.com</title>
      <g clip-path="url(#clip27)" transform="matrix(0.000104987, 0, 0, 0.000104987, 1132, 666)" id="imgMultimodalSlides--slide4--19">
        <g clip-path="url(#clip29)" transform="matrix(1.02787, 0, 0, 1, -1, -17356.5)">
          <use xlink:href="#img28" width="100%" height="100%" transform="scale(9279.37)" />
        </g>
      </g>
    </a>
    <text transform="translate(1012.7, 695)" id="rectMultimodalSlides--slide4--20" font-family="Carlito,sans-serif" font-size="21" font-weight="700" style="fill:white;">Created with</text>
    <a href="mailto:John@JohnBaluka.com?subject=[Please%20Provide%20Subject]&body=Please answer the questions below to help reduce spam...%0D%0A%0D%0ADo you want to be added to my mailing list? (Yes, No)%0D%0A%0D%0AHow did you hear about me?  (My Site, YouTube, LinkedIn, GitHub, Sessionize, Search, Word-of-Mouth)%0D%0A%0D%0AHow can I help?%0D%0A" id="rectEmail--slide4--21__LINK">
      <title>Email Me</title>
      <text transform="translate(14.7744, 698)" id="rectEmail--slide4--21" font-family="Carlito,sans-serif" font-size="24" font-weight="400" style="fill:white;">John@JohnBaluka.com</text>
    </a>
    <path d="M14.7744 701.333 L71.0244 701.333 L127.274 701.333 L183.524 701.333 L239.774 701.333 L239.774 703.333 L183.524 703.333 L127.274 703.333 L71.0244 703.333 L14.7744 703.333 Z" id="rectEmail--slide4--22" fill-rule="evenodd" style="fill:white;" />
    <a href="http://movingtoblazor.com/" id="Picture_31--slide4--23__LINK" target="_blank">
      <title>Goto MovingToBlazor.com</title>
      <g clip-path="url(#clip30)" transform="matrix(0.000104987, 0, 0, 0.000104987, 817, 661)" id="Picture_31--slide4--23">
        <g clip-path="url(#clip32)" transform="matrix(1.00557, 0, 0, 1, 0, -14299)">
          <use xlink:href="#img31" width="100%" height="100%" transform="scale(8572.67)" />
        </g>
      </g>
    </a>
    <a href="https://www.radzen.com/blazor-components/" id="Picture_29--slide4--24__LINK" target="_blank">
      <title>Learn about radzen Blazor Components</title>
      <g clip-path="url(#clip33)" transform="matrix(0.000104987, 0, 0, 0.000104987, 26, 183)" id="Picture_29--slide4--24" class="fragment-off" data-fragment-index="1">
        <g clip-path="url(#clip35)" transform="matrix(1, 0, 0, 1.00045, -0.015625, -0.125)">
          <use xlink:href="#img34" width="100%" height="100%" transform="scale(5568.46)" />
        </g>
      </g>
    </a>
    <a href="https://www.radzen.com/blazor-studio/" id="Picture_8--slide4--25__LINK" target="_blank">
      <title>Learn about radzen Blazor Studio</title>
      <g clip-path="url(#clip36)" transform="matrix(0.000104987, 0, 0, 0.000104987, 646, 183)" id="Picture_8--slide4--25">
        <g clip-path="url(#clip38)" transform="matrix(1, 0, 0, 1.00035, 0, -0.125)">
          <use xlink:href="#img37" width="100%" height="100%" transform="scale(5023.5)" />
        </g>
      </g>
    </a>
    <text transform="translate(9.6, -22)" id="TitlePlaceholder--slide4--26" font-family="Carlito,sans-serif" font-size="39" font-weight="300">radzen</text>
    <g id="Content_Placeholder_11--slide4--27" class="fragment-off" data-fragment-index="1">
      <g>
        <g>
          <path d="M30.4897 60.9794 C47.3286 60.9794 60.9794 47.3286 60.9794 30.4897 C60.9794 13.6507 47.3286 0 30.4897 0 C13.6507 0 0 13.6507 0 30.4897 C0 42.2372 6.64379 52.4331 16.379 57.5247 L16.3978 57.1681 L15.6926 43.8289 L23.7264 43.8289 C23.7264 43.8289 22.9531 49.9297 22.9531 57.1681 C22.9531 58.1545 22.9681 59.1197 22.9943 60.0511 C25.3923 60.6572 27.9033 60.9794 30.4897 60.9794 Z M33.0781 20.1578 C29.8873 22 28.2036 25.0727 27.5476 26.5341 L22.9674 30.2769 C22.9581 29.7213 22.9531 29.1564 22.9531 28.5841 C22.9531 21.3456 23.7635 15.2448 23.7635 15.2448 L15.6926 15.2448 C15.6926 15.2448 16.3978 21.3456 16.3978 28.5841 C16.3978 35.8225 15.6926 41.9233 15.6926 41.9233 L23.7635 41.9233 C23.7635 41.9233 23.1601 37.3812 22.9946 31.4852 L23.7395 30.8764 C24.4 31.7707 26.1784 33.7634 29.377 34.5733 C33.5613 35.6328 41.2216 34.9325 41.2216 34.9325 C41.2216 34.9325 34.7135 31.0814 30.5293 30.0221 C28.1193 29.4119 26.1332 29.6399 24.8821 29.9429 L27.9909 27.4024 C29.4815 27.4483 32.8999 27.3338 36.2581 25.6657 C40.7257 23.4464 49.4954 14.4917 49.4954 14.4917 C49.4954 14.4917 37.3764 17.6761 33.0781 20.1578 Z" transform="matrix(1, 0, 0, 1.00034, 33, 95)" fill-rule="evenodd" style="fill:#FF504D;" />
          <path d="M114.969 40.8722 L114.966 40.8696 C113.302 38.7767 112.483 35.8697 112.483 32.1757 C112.483 30.3532 112.741 28.7063 113.262 27.2379 L113.263 27.2343 C113.813 25.7722 114.533 24.5323 115.424 23.5188 C116.315 22.5076 117.33 21.7238 118.47 21.1698 L118.472 21.1689 C119.643 20.6155 120.848 20.3375 122.084 20.3375 C123.371 20.3375 124.474 20.5666 125.383 21.0357 C126.149 21.405 126.912 21.8974 127.673 22.5108 L127.515 19.4274 L127.515 13.0669 L133.13 13.0669 L133.13 43.4279 L128.448 43.4279 L128.099 41.1141 C127.301 41.8824 126.383 42.5401 125.342 43.0881 C124.229 43.6747 123.052 43.9686 121.813 43.9686 C118.956 43.9686 116.668 42.9378 114.969 40.8722 Z M125.354 25.4344 L125.351 25.4335 C124.651 25.1717 123.94 25.0413 123.213 25.0413 C121.841 25.0413 120.68 25.636 119.722 26.8535 C118.769 28.0643 118.277 29.8136 118.277 32.1306 C118.277 34.5131 118.696 36.2965 119.504 37.5087 C120.334 38.6782 121.516 39.2649 123.077 39.2649 C124.634 39.2649 126.113 38.5001 127.515 36.9179 L127.515 26.7736 C126.773 26.1289 126.052 25.6855 125.354 25.4344 Z M74.0463 20.8783 L78.7389 20.8783 L79.0808 24.5912 C79.8408 23.2807 80.7501 22.2633 81.8123 21.5465 C82.955 20.7452 84.1397 20.3375 85.363 20.3375 L87.6508 20.3375 L87.6508 25.4017 L85.5398 25.4017 C84.1972 25.4017 83.1449 25.5718 82.0551 26.3537 L82.0516 26.3562 C81.1434 26.9794 80.3415 28.0959 79.6604 29.7389 L79.6604 43.4279 L74.0463 43.4279 Z M137.078 43.4279 L137.078 40.3569 L147.36 25.4017 L137.078 25.4017 L137.078 20.8783 L154.474 20.8783 L154.474 23.904 L144.235 38.8594 L154.474 38.8594 L154.474 43.4279 Z M179.964 43.4279 L179.964 20.8783 L184.651 20.8783 L185.003 23.7742 C185.966 22.8606 186.999 22.0707 188.101 21.4045 L188.103 21.4032 C189.314 20.6908 190.706 20.3375 192.274 20.3375 C194.699 20.3375 196.503 21.1216 197.637 22.7241 C198.756 24.2766 199.301 26.4902 199.301 29.3364 L199.301 43.4279 L193.688 43.4279 L193.688 30.0124 C193.688 28.1878 193.416 26.9543 192.915 26.2605 C192.425 25.5818 191.613 25.2216 190.423 25.2216 C189.497 25.2216 188.68 25.452 187.963 25.9094 L187.961 25.9104 C187.273 26.3401 186.479 26.9846 185.578 27.8492 L185.578 43.4279 Z M92.008 42.1519 L92.006 42.1499 C90.7473 40.9027 90.1241 39.2684 90.1241 37.2681 C90.1241 36.0665 90.3731 34.9946 90.8771 34.0584 L90.8784 34.0562 C91.4141 33.0884 92.2301 32.2673 93.3167 31.5906 L93.3191 31.5894 C94.4317 30.9156 95.8157 30.3532 97.466 29.8989 L97.4669 29.8987 C99.0991 29.4577 101.029 29.1175 103.256 28.8775 C103.218 28.3958 103.134 27.938 103.006 27.504 L103.004 27.497 L103.002 27.4901 C102.887 26.98 102.674 26.5464 102.365 26.184 L102.36 26.1775 L102.354 26.1702 C102.076 25.7842 101.699 25.4925 101.218 25.296 L101.212 25.2941 L101.208 25.2919 C100.728 25.068 100.124 24.9511 99.3868 24.9511 C98.3235 24.9511 97.2735 25.1558 96.2359 25.5668 C95.2162 25.983 94.2102 26.4887 93.2187 27.0841 L93.0307 27.1971 L90.9184 23.3602 L91.0872 23.2542 C92.3443 22.4642 93.7524 21.7821 95.3107 21.2068 C96.8829 20.6266 98.576 20.3375 100.387 20.3375 C103.219 20.3375 105.365 21.1775 106.781 22.8914 C108.219 24.5658 108.922 26.9806 108.922 30.1026 L108.922 43.4279 L104.208 43.4279 L103.853 41.0509 C102.876 41.8561 101.828 42.5359 100.71 43.0898 C99.5564 43.6766 98.2959 43.9686 96.9305 43.9686 C94.9149 43.9686 93.2671 43.3679 92.008 42.1519 Z M100.968 38.886 C101.687 38.4868 102.455 37.9177 103.269 37.1751 L103.269 32.5494 C101.864 32.7253 100.682 32.9542 99.7193 33.2347 C98.6989 33.532 97.8842 33.8711 97.2687 34.2485 L97.2659 34.2505 L97.2621 34.2522 C96.6485 34.5998 96.2264 34.9961 95.9777 35.4345 C95.7223 35.8841 95.5956 36.359 95.5956 36.8623 C95.5956 37.81 95.8834 38.4572 96.4198 38.8559 C96.9819 39.2737 97.708 39.4903 98.6141 39.4903 C99.4897 39.4903 100.271 39.2882 100.964 38.8878 Z M163.212 43.1885 L163.208 43.187 C161.858 42.6358 160.676 41.8541 159.662 40.8425 C158.647 39.8294 157.85 38.6031 157.269 37.167 L157.267 37.1621 C156.714 35.6922 156.441 34.029 156.441 32.1757 C156.441 30.3507 156.73 28.7014 157.313 27.2306 C157.894 25.7671 158.659 24.5268 159.613 23.5135 L159.615 23.5112 C160.597 22.5006 161.717 21.7186 162.977 21.1664 C164.236 20.6145 165.529 20.3375 166.854 20.3375 C168.383 20.3375 169.737 20.5969 170.913 21.1219 C172.085 21.6454 173.059 22.3858 173.834 23.3437 C174.636 24.2988 175.236 25.4361 175.634 26.7515 C176.032 28.0658 176.229 29.4989 176.229 31.0491 C176.229 31.5654 176.146 32.5121 176.146 32.5121 C176.146 32.5121 176.062 33.3346 175.999 33.6185 L175.962 33.784 L161.949 33.784 C162.21 35.614 162.875 37.0169 163.928 38.0138 C165.057 39.0243 166.493 39.5354 168.253 39.5354 C169.196 39.5354 170.06 39.4032 170.848 39.1412 C171.675 38.8463 172.488 38.4481 173.288 37.9454 L173.479 37.8256 L175.439 41.4391 L175.277 41.5455 C174.208 42.2468 173.017 42.825 171.709 43.2809 C170.392 43.7397 169.014 43.9686 167.576 43.9686 C166.018 43.9686 164.562 43.7092 163.212 43.1885 Z M170.207 26.1741 L170.205 26.1711 C169.532 25.2479 168.475 24.7708 166.989 24.7708 C165.721 24.7708 164.614 25.2149 163.658 26.1108 C162.754 26.9587 162.164 28.1959 161.907 29.8462 L171.291 29.8462 C171.261 28.2657 170.893 27.0503 170.209 26.177 Z" transform="matrix(1, 0, 0, 1.00034, 33, 95)" fill-rule="evenodd" style="fill:#050A23;" />
          <path d="M213.433 43.4478 L213.433 13.3087 L221.574 13.3087 C224.623 13.3087 227.047 13.9033 228.846 15.0924 C230.645 16.251 231.544 18.0956 231.544 20.6263 C231.544 22.2117 231.148 23.599 230.355 24.7881 C229.562 25.9467 228.404 26.7547 226.879 27.212 L226.879 27.395 C228.831 27.6999 230.401 28.4774 231.59 29.7274 C232.779 30.947 233.374 32.5935 233.374 34.6668 C233.374 37.5633 232.352 39.7585 230.309 41.2525 C228.297 42.716 225.584 43.4478 222.169 43.4478 Z M215.537 26.5718 L220.751 26.5718 C223.83 26.5718 226.041 26.0687 227.382 25.0625 C228.755 24.0259 229.441 22.6233 229.441 20.8549 C229.441 18.7207 228.724 17.2267 227.291 16.373 C225.858 15.4888 223.754 15.0467 220.98 15.0467 L215.537 15.0467 Z M215.537 41.7099 L221.62 41.7099 C224.608 41.7099 226.971 41.1458 228.709 40.0177 C230.447 38.8896 231.316 37.1212 231.316 34.7125 C231.316 32.5477 230.462 30.947 228.755 29.9104 C227.078 28.8432 224.699 28.3097 221.62 28.3097 L215.537 28.3097 Z" transform="matrix(1, 0, 0, 1.00034, 33, 95)" style="fill:#050A23;" />
          <path d="M241.429 43.9966 C239.63 43.9966 238.73 42.838 238.73 40.5208 L238.73 10.5647 L240.743 10.5647 L240.743 40.7952 C240.743 41.7404 241.063 42.213 241.703 42.213 L242.023 42.213 C242.145 42.1825 242.313 42.152 242.526 42.1215 L242.892 43.7679 C242.679 43.8289 242.465 43.8746 242.252 43.9051 C242.038 43.9661 241.764 43.9966 241.429 43.9966 Z" transform="matrix(1, 0, 0, 1.00034, 33, 95)" style="fill:#050A23;" />
          <path d="M253.471 43.9966 C251.733 43.9966 250.239 43.5088 248.989 42.5331 C247.739 41.5574 247.114 40.0329 247.114 37.9596 C247.114 35.5205 248.257 33.6758 250.544 32.4258 C252.831 31.1452 256.413 30.2305 261.292 29.6817 C261.322 28.5536 261.2 27.4712 260.926 26.4345 C260.651 25.3674 260.133 24.4832 259.371 23.7819 C258.639 23.0807 257.542 22.7301 256.078 22.7301 C254.615 22.7301 253.273 23.0197 252.053 23.599 C250.834 24.1783 249.843 24.7424 249.081 25.2912 L248.166 23.7819 C248.684 23.4161 249.355 23.0197 250.178 22.5928 C251.001 22.1355 251.931 21.7544 252.968 21.4495 C254.035 21.1141 255.163 20.9464 256.352 20.9464 C258.09 20.9464 259.462 21.3275 260.469 22.0898 C261.475 22.852 262.191 23.8734 262.618 25.154 C263.075 26.4041 263.304 27.8218 263.304 29.4073 L263.304 43.4478 L261.566 43.4478 L261.383 40.6122 L261.246 40.6122 C260.118 41.4964 258.898 42.2892 257.587 42.9904 C256.276 43.6612 254.904 43.9966 253.471 43.9966 Z M253.837 42.2587 C255.087 42.2587 256.291 41.9538 257.45 41.344 C258.639 40.7342 259.92 39.85 261.292 38.6914 L261.292 31.2367 C258.273 31.6025 255.88 32.0751 254.111 32.6544 C252.343 33.2337 251.078 33.9655 250.315 34.8497 C249.553 35.7034 249.172 36.7096 249.172 37.8682 C249.172 39.4536 249.629 40.5818 250.544 41.2525 C251.489 41.9233 252.587 42.2587 253.837 42.2587 Z" transform="matrix(1, 0, 0, 1.00034, 33, 95)" style="fill:#050A23;" />
          <path d="M267.247 43.4478 L267.247 42.3502 L280.235 23.2331 L268.665 23.2331 L268.665 21.4952 L282.842 21.4952 L282.842 22.5471 L269.899 41.6641 L283.3 41.6641 L283.3 43.4478 Z" transform="matrix(1, 0, 0, 1.00034, 33, 95)" style="fill:#050A23;" />
          <path d="M295.352 43.9966 C293.614 43.9966 291.998 43.5545 290.504 42.6703 C289.01 41.7556 287.805 40.4446 286.891 38.7371 C285.976 36.9992 285.519 34.9259 285.519 32.5172 C285.519 30.0476 285.976 27.959 286.891 26.2516 C287.805 24.5137 289.01 23.2026 290.504 22.3184 C291.998 21.4038 293.614 20.9464 295.352 20.9464 C297.12 20.9464 298.751 21.4038 300.245 22.3184 C301.739 23.2026 302.944 24.5137 303.858 26.2516 C304.773 27.959 305.23 30.0476 305.23 32.5172 C305.23 34.9259 304.773 36.9992 303.858 38.7371 C302.944 40.4446 301.739 41.7556 300.245 42.6703 C298.751 43.5545 297.12 43.9966 295.352 43.9966 Z M295.352 42.213 C296.846 42.213 298.172 41.8013 299.33 40.9781 C300.489 40.1549 301.404 39.0268 302.075 37.5938 C302.776 36.1303 303.126 34.4381 303.126 32.5172 C303.126 30.5659 302.776 28.8585 302.075 27.395 C301.404 25.9315 300.489 24.7881 299.33 23.9649 C298.172 23.1417 296.846 22.7301 295.352 22.7301 C293.888 22.7301 292.562 23.1417 291.373 23.9649 C290.214 24.7881 289.299 25.9315 288.629 27.395 C287.958 28.8585 287.622 30.5659 287.622 32.5172 C287.622 34.4381 287.958 36.1303 288.629 37.5938 C289.299 39.0268 290.214 40.1549 291.373 40.9781 C292.562 41.8013 293.888 42.213 295.352 42.213 Z" transform="matrix(1, 0, 0, 1.00034, 33, 95)" style="fill:#050A23;" />
          <path d="M310.909 43.4478 L310.909 21.4952 L312.647 21.4952 L312.83 25.5656 L312.967 25.5656 C313.699 24.224 314.583 23.1264 315.62 22.2727 C316.687 21.3885 317.876 20.9464 319.187 20.9464 C319.614 20.9464 319.995 20.9769 320.33 21.0379 C320.666 21.0989 321.016 21.2208 321.382 21.4038 L320.925 23.2331 C320.559 23.0807 320.239 22.9892 319.964 22.9587 C319.69 22.8977 319.339 22.8673 318.912 22.8673 C317.937 22.8673 316.9 23.2941 315.803 24.1478 C314.735 24.971 313.775 26.4193 312.921 28.4926 L312.921 43.4478 Z" transform="matrix(1, 0, 0, 1.00034, 33, 95)" style="fill:#050A23;" />
        </g>
      </g>
    </g>
    <text transform="translate(1212.11, -17)" id="SectionNameTextPlaceholder--slide4--28" font-family="Carlito,sans-serif" font-size="21" font-weight="400">radzen</text>
    <a href="https://dotnet.microsoft.com/en-us/apps/aspnet/web-apps/blazor" id="__Blazor--slide4--29__LINK" target="_blank">
      <title>Learn about Blazor</title>
      <g clip-path="url(#clip39)" transform="matrix(0.000104987, 0, 0, 0.000104987, 1111, 592)" id="__Blazor--slide4--29">
        <g clip-path="url(#clip40)" transform="matrix(1, 0, 0, 1.00267, -1, 0)">
          <use xlink:href="#img13" width="100%" height="100%" transform="scale(8636)" />
        </g>
      </g>
    </a>
    <g id="Graphic_21--slide4--30">
      <g>
        <g>
          <path d="M39 78 C60.5391 78 78 60.5391 78 39 C78 17.4609 60.5391 0 39 0 C17.4609 0 0 17.4609 0 39 C0 54.0265 8.49821 67.0683 20.9507 73.5811 L20.9748 73.125 L20.0727 56.0625 L30.3489 56.0625 C30.3489 56.0625 29.3598 63.8662 29.3598 73.125 C29.3598 74.3867 29.3789 75.6212 29.4125 76.8127 C32.4798 77.5879 35.6917 78 39 78 Z M42.3109 25.7842 C38.2295 28.1407 36.0759 32.071 35.2367 33.9404 L29.3781 38.7279 C29.3661 38.0172 29.3598 37.2946 29.3598 36.5625 C29.3598 27.3037 30.3964 19.5 30.3964 19.5 L20.0727 19.5 C20.0727 19.5 20.9748 27.3037 20.9748 36.5625 C20.9748 45.8213 20.0727 53.625 20.0727 53.625 L30.3964 53.625 C30.3964 53.625 29.6246 47.8151 29.4129 40.2733 L30.3656 39.4947 C31.2106 40.6386 33.4854 43.1875 37.5767 44.2234 C42.929 45.5787 52.7274 44.6829 52.7274 44.6829 C52.7274 44.6829 44.4028 39.7568 39.0507 38.402 C35.968 37.6213 33.4275 37.913 31.8273 38.3006 L35.8037 35.051 C37.7104 35.1097 42.0829 34.9633 46.3786 32.8296 C52.0932 29.9908 63.3106 18.5367 63.3106 18.5367 C63.3106 18.5367 47.809 22.6099 42.3109 25.7842 Z" transform="matrix(1.005, 0, -9.10952E-17, 1, 670, 92)" fill-rule="evenodd" style="fill:url(&quot;#fill41&quot;);" />
          <path d="M147.059 52.2806 L147.056 52.2773 C144.926 49.6002 143.88 45.8818 143.88 41.1567 C143.88 38.8256 144.21 36.7191 144.876 34.8406 L144.878 34.8361 C145.581 32.9658 146.501 31.38 147.642 30.0835 C148.781 28.79 150.079 27.7875 151.538 27.079 L151.541 27.0778 C153.038 26.3699 154.579 26.0143 156.161 26.0143 C157.806 26.0143 159.217 26.3074 160.38 26.9073 C161.36 27.3797 162.336 28.0096 163.309 28.7943 L163.108 24.8502 L163.108 16.7144 L170.29 16.7144 L170.29 55.5497 L164.301 55.5497 L163.854 52.5902 C162.834 53.573 161.659 54.4141 160.328 55.115 C158.904 55.8653 157.398 56.2413 155.814 56.2413 C152.16 56.2413 149.232 54.9228 147.059 52.2806 Z M160.342 32.5338 L160.339 32.5327 C159.444 32.1978 158.534 32.0309 157.604 32.0309 C155.849 32.0309 154.364 32.7918 153.14 34.349 C151.92 35.8978 151.291 38.1353 151.291 41.0991 C151.291 44.1467 151.827 46.4278 152.861 47.9784 C153.922 49.4743 155.433 50.2248 157.431 50.2248 C159.422 50.2248 161.314 49.2464 163.108 47.2225 L163.108 34.2468 C162.158 33.4221 161.236 32.8549 160.342 32.5338 Z M94.7142 26.706 L100.717 26.706 L101.154 31.4552 C102.126 29.7791 103.289 28.4776 104.648 27.5607 C106.109 26.5357 107.625 26.0143 109.19 26.0143 L112.116 26.0143 L112.116 32.492 L109.416 32.492 C107.698 32.492 106.352 32.7095 104.958 33.7097 L104.954 33.7129 C103.792 34.51 102.767 35.9383 101.895 38.0397 L101.895 55.5497 L94.7142 55.5497 Z M175.339 55.5497 L175.339 51.6215 L188.492 32.492 L175.339 32.492 L175.339 26.706 L197.591 26.706 L197.591 30.5762 L184.494 49.7061 L197.591 49.7061 L197.591 55.5497 Z M230.196 55.5497 L230.196 26.706 L236.191 26.706 L236.641 30.4102 C237.873 29.2416 239.194 28.2312 240.604 27.3791 L240.607 27.3774 C242.156 26.4661 243.936 26.0143 245.941 26.0143 C249.043 26.0143 251.351 27.0174 252.802 29.0669 C254.234 31.0529 254.931 33.8843 254.931 37.5249 L254.931 55.5497 L247.75 55.5497 L247.75 38.3897 C247.75 36.0557 247.403 34.478 246.762 33.5905 C246.135 32.7223 245.097 32.2617 243.575 32.2617 C242.39 32.2617 241.344 32.5563 240.428 33.1413 L240.425 33.1428 C239.545 33.6923 238.529 34.5167 237.377 35.6226 L237.377 55.5497 Z M117.689 53.9175 L117.687 53.9149 C116.077 52.3196 115.28 50.2292 115.28 47.6706 C115.28 46.1337 115.598 44.7625 116.243 43.565 L116.244 43.5621 C116.93 42.3241 117.974 41.2739 119.363 40.4085 L119.366 40.4068 C120.79 39.5449 122.56 38.8256 124.671 38.2445 L124.672 38.2443 C126.76 37.6801 129.229 37.245 132.077 36.938 C132.028 36.3218 131.921 35.7363 131.757 35.181 L131.754 35.1721 L131.752 35.1633 C131.605 34.5109 131.333 33.9562 130.938 33.4926 L130.93 33.4843 L130.923 33.475 C130.567 32.9812 130.086 32.6081 129.47 32.357 L129.463 32.3544 L129.457 32.3516 C128.844 32.0652 128.071 31.9157 127.128 31.9157 C125.768 31.9157 124.425 32.1776 123.097 32.7032 C121.793 33.2356 120.506 33.8823 119.238 34.6439 L118.998 34.7886 L116.296 29.8807 L116.512 29.7451 C118.12 28.7346 119.921 27.8622 121.914 27.1262 C123.925 26.3841 126.091 26.0143 128.408 26.0143 C132.03 26.0143 134.774 27.0888 136.585 29.281 C138.426 31.4229 139.325 34.5117 139.325 38.5049 L139.325 55.5497 L133.295 55.5497 L132.84 52.5094 C131.591 53.5392 130.25 54.4087 128.821 55.1174 C127.345 55.8677 125.732 56.2413 123.986 56.2413 C121.408 56.2413 119.3 55.473 117.689 53.9175 Z M129.15 49.74 C130.07 49.2295 131.052 48.5015 132.094 47.5516 L132.094 41.6347 C130.297 41.8598 128.784 42.1525 127.553 42.5113 C126.248 42.8916 125.206 43.3253 124.419 43.8081 L124.415 43.8106 L124.41 43.8128 C123.625 44.2574 123.085 44.7644 122.767 45.3252 C122.44 45.9002 122.278 46.5077 122.278 47.1516 C122.278 48.3637 122.646 49.1916 123.333 49.7016 C124.052 50.2359 124.98 50.513 126.139 50.513 C127.259 50.513 128.259 50.2545 129.145 49.7423 Z M208.768 55.2435 L208.763 55.2416 C207.036 54.5365 205.524 53.5366 204.227 52.2427 C202.929 50.9468 201.909 49.3781 201.166 47.5412 L201.163 47.5349 C200.456 45.6547 200.107 43.5273 200.107 41.1567 C200.107 38.8223 200.477 36.7127 201.223 34.8315 C201.965 32.9595 202.944 31.3729 204.164 30.0768 L204.167 30.0738 C205.423 28.7811 206.856 27.7808 208.467 27.0745 C210.078 26.3685 211.732 26.0143 213.426 26.0143 C215.382 26.0143 217.114 26.3461 218.618 27.0176 C220.117 27.6872 221.364 28.6344 222.355 29.8595 C223.381 31.0813 224.148 32.536 224.657 34.2186 C225.167 35.8997 225.419 37.7327 225.419 39.7156 C225.419 40.3761 225.312 41.587 225.312 41.587 C225.312 41.587 225.204 42.6393 225.124 43.0023 L225.076 43.214 L207.152 43.214 C207.486 45.5548 208.337 47.3493 209.684 48.6243 C211.128 49.917 212.964 50.5707 215.217 50.5707 C216.422 50.5707 217.527 50.4017 218.535 50.0665 C219.593 49.6893 220.633 49.1799 221.656 48.5368 L221.9 48.3836 L224.407 53.0058 L224.2 53.142 C222.833 54.039 221.31 54.7785 219.637 55.3616 C217.952 55.9485 216.189 56.2413 214.35 56.2413 C212.357 56.2413 210.495 55.9095 208.768 55.2435 Z M217.715 33.4802 L217.713 33.4763 C216.852 32.2953 215.501 31.6849 213.599 31.6849 C211.977 31.6849 210.561 32.253 209.339 33.399 C208.182 34.4836 207.428 36.0661 207.099 38.1771 L219.102 38.1771 C219.063 36.1556 218.593 34.6008 217.717 33.4837 Z" transform="matrix(1.005, 0, 0, 1, 670, 92)" fill-rule="evenodd" style="fill:#050A23;" />
          <path d="M273.007 55.5749 L273.007 17.0234 L283.42 17.0234 C287.32 17.0234 290.421 17.7839 292.722 19.3049 C295.023 20.7869 296.173 23.1464 296.173 26.3834 C296.173 28.4114 295.666 30.1859 294.652 31.7069 C293.638 33.1889 292.156 34.2224 290.206 34.8074 L290.206 35.0414 C292.702 35.4314 294.711 36.4259 296.232 38.0249 C297.753 39.5849 298.513 41.6909 298.513 44.3429 C298.513 48.0479 297.207 50.8559 294.594 52.7669 C292.02 54.6389 288.549 55.5749 284.181 55.5749 Z M275.698 33.9884 L282.367 33.9884 C286.306 33.9884 289.134 33.3449 290.85 32.0579 C292.605 30.7319 293.482 28.9379 293.482 26.6759 C293.482 23.9459 292.566 22.0349 290.733 20.9429 C288.9 19.8119 286.209 19.2464 282.66 19.2464 L275.698 19.2464 Z M275.698 53.3519 L283.479 53.3519 C287.301 53.3519 290.323 52.6304 292.546 51.1874 C294.769 49.7444 295.881 47.4824 295.881 44.4014 C295.881 41.6324 294.789 39.5849 292.605 38.2589 C290.46 36.8939 287.418 36.2114 283.479 36.2114 L275.698 36.2114 Z" transform="matrix(1.005, 0, 0, 1, 670, 92)" style="fill:#050A23;" />
          <path d="M308.817 56.2769 C306.516 56.2769 305.365 54.7949 305.365 51.8309 L305.365 13.5134 L307.939 13.5134 L307.939 52.1819 C307.939 53.3909 308.349 53.9954 309.168 53.9954 L309.577 53.9954 C309.733 53.9564 309.948 53.9174 310.221 53.8784 L310.689 55.9844 C310.416 56.0624 310.143 56.1209 309.87 56.1599 C309.597 56.2379 309.246 56.2769 308.817 56.2769 Z" transform="matrix(1.005, 0, 0, 1, 670, 92)" style="fill:#050A23;" />
          <path d="M324.22 56.2769 C321.997 56.2769 320.086 55.6529 318.487 54.4049 C316.888 53.1569 316.089 51.2069 316.089 48.5549 C316.089 45.4349 317.551 43.0754 320.476 41.4764 C323.401 39.8384 327.984 38.6684 334.224 37.9664 C334.263 36.5234 334.107 35.1389 333.756 33.8129 C333.405 32.4479 332.742 31.3169 331.767 30.4199 C330.831 29.5229 329.427 29.0744 327.555 29.0744 C325.683 29.0744 323.967 29.4449 322.407 30.1859 C320.847 30.9269 319.579 31.6484 318.604 32.3504 L317.434 30.4199 C318.097 29.9519 318.955 29.4449 320.008 28.8989 C321.061 28.3139 322.251 27.8264 323.577 27.4364 C324.942 27.0074 326.385 26.7929 327.906 26.7929 C330.129 26.7929 331.884 27.2804 333.171 28.2554 C334.458 29.2304 335.374 30.5369 335.92 32.1749 C336.505 33.7739 336.798 35.5874 336.798 37.6154 L336.798 55.5749 L334.575 55.5749 L334.341 51.9479 L334.165 51.9479 C332.722 53.0789 331.162 54.0929 329.485 54.9899 C327.808 55.8479 326.053 56.2769 324.22 56.2769 Z M324.688 54.0539 C326.287 54.0539 327.828 53.6639 329.31 52.8839 C330.831 52.1039 332.469 50.9729 334.224 49.4909 L334.224 39.9554 C330.363 40.4234 327.301 41.0279 325.039 41.7689 C322.777 42.5099 321.159 43.4459 320.184 44.5769 C319.209 45.6689 318.721 46.9559 318.721 48.4379 C318.721 50.4659 319.306 51.9089 320.476 52.7669 C321.685 53.6249 323.089 54.0539 324.688 54.0539 Z" transform="matrix(1.005, 0, 0, 1, 670, 92)" style="fill:#050A23;" />
          <path d="M341.841 55.5749 L341.841 54.1709 L358.455 29.7179 L343.655 29.7179 L343.655 27.4949 L361.79 27.4949 L361.79 28.8404 L345.234 53.2934 L362.375 53.2934 L362.375 55.5749 Z" transform="matrix(1.005, 0, 0, 1, 670, 92)" style="fill:#050A23;" />
          <path d="M377.791 56.2769 C375.568 56.2769 373.501 55.7114 371.59 54.5804 C369.679 53.4104 368.138 51.7334 366.968 49.5494 C365.798 47.3264 365.213 44.6744 365.213 41.5934 C365.213 38.4344 365.798 35.7629 366.968 33.5789 C368.138 31.3559 369.679 29.6789 371.59 28.5479 C373.501 27.3779 375.568 26.7929 377.791 26.7929 C380.053 26.7929 382.139 27.3779 384.05 28.5479 C385.961 29.6789 387.502 31.3559 388.672 33.5789 C389.842 35.7629 390.427 38.4344 390.427 41.5934 C390.427 44.6744 389.842 47.3264 388.672 49.5494 C387.502 51.7334 385.961 53.4104 384.05 54.5804 C382.139 55.7114 380.053 56.2769 377.791 56.2769 Z M377.791 53.9954 C379.702 53.9954 381.398 53.4689 382.88 52.4159 C384.362 51.3629 385.532 49.9199 386.39 48.0869 C387.287 46.2149 387.736 44.0504 387.736 41.5934 C387.736 39.0974 387.287 36.9134 386.39 35.0414 C385.532 33.1694 384.362 31.7069 382.88 30.6539 C381.398 29.6009 379.702 29.0744 377.791 29.0744 C375.919 29.0744 374.222 29.6009 372.701 30.6539 C371.219 31.7069 370.049 33.1694 369.191 35.0414 C368.333 36.9134 367.904 39.0974 367.904 41.5934 C367.904 44.0504 368.333 46.2149 369.191 48.0869 C370.049 49.9199 371.219 51.3629 372.701 52.4159 C374.222 53.4689 375.919 53.9954 377.791 53.9954 Z" transform="matrix(1.005, 0, 0, 1, 670, 92)" style="fill:#050A23;" />
          <path d="M397.69 55.5749 L397.69 27.4949 L399.913 27.4949 L400.147 32.7014 L400.323 32.7014 C401.259 30.9854 402.39 29.5814 403.716 28.4894 C405.081 27.3584 406.602 26.7929 408.279 26.7929 C408.825 26.7929 409.312 26.8319 409.741 26.9099 C410.17 26.9879 410.619 27.1439 411.087 27.3779 L410.502 29.7179 C410.034 29.5229 409.624 29.4059 409.273 29.3669 C408.922 29.2889 408.474 29.2499 407.928 29.2499 C406.68 29.2499 405.354 29.7959 403.95 30.8879 C402.585 31.9409 401.356 33.7934 400.264 36.4454 L400.264 55.5749 Z" transform="matrix(1.005, 0, 0, 1, 670, 92)" style="fill:#050A23;" />
          <path d="M435.983 56.2769 C433.175 56.2769 430.679 55.7309 428.495 54.6389 C426.311 53.5469 424.459 52.1624 422.938 50.4854 L424.693 48.6134 C426.097 50.1734 427.774 51.4409 429.724 52.4159 C431.674 53.3519 433.76 53.8199 435.983 53.8199 C438.947 53.8199 441.287 53.0984 443.003 51.6554 C444.719 50.2124 445.577 48.3599 445.577 46.0979 C445.577 44.4989 445.265 43.2119 444.641 42.2369 C444.017 41.2619 443.179 40.4624 442.126 39.8384 C441.112 39.1754 439.96 38.5709 438.674 38.0249 L432.824 35.3924 C431.732 34.8854 430.562 34.2614 429.314 33.5204 C428.105 32.7404 427.072 31.7459 426.214 30.5369 C425.395 29.2889 424.985 27.7094 424.985 25.7984 C424.985 23.9264 425.473 22.2884 426.448 20.8844 C427.423 19.4414 428.749 18.3299 430.426 17.5499 C432.142 16.7309 434.072 16.3214 436.217 16.3214 C438.518 16.3214 440.585 16.7894 442.418 17.7254 C444.251 18.6224 445.753 19.6949 446.923 20.9429 L445.402 22.6979 C444.271 21.5279 442.945 20.5919 441.424 19.8899 C439.903 19.1489 438.167 18.7784 436.217 18.7784 C433.682 18.7784 431.615 19.4024 430.016 20.6504 C428.456 21.8984 427.676 23.5754 427.676 25.6814 C427.676 27.1634 428.027 28.3724 428.729 29.3084 C429.47 30.2444 430.347 31.0049 431.362 31.5899 C432.414 32.1749 433.408 32.6819 434.344 33.1109 L440.195 35.6849 C441.638 36.3089 442.964 37.0499 444.173 37.9079 C445.421 38.7269 446.416 39.7799 447.157 41.0669 C447.937 42.3149 448.327 43.9334 448.327 45.9224 C448.327 47.8724 447.82 49.6469 446.806 51.2459 C445.792 52.8059 444.349 54.0344 442.477 54.9314 C440.644 55.8284 438.479 56.2769 435.983 56.2769 Z" transform="matrix(1.005, 0, 0, 1, 670, 92)" style="fill:#050A23;" />
          <path d="M461.372 56.2769 C458.642 56.2769 456.79 55.4969 455.815 53.9369 C454.84 52.3379 454.352 50.2904 454.352 47.7944 L454.352 29.7179 L449.965 29.7179 L449.965 27.7289 L454.411 27.4949 L454.762 19.3634 L456.985 19.3634 L456.985 27.4949 L465.116 27.4949 L465.116 29.7179 L456.985 29.7179 L456.985 48.0284 C456.985 49.8224 457.297 51.2654 457.921 52.3574 C458.545 53.4494 459.812 53.9954 461.723 53.9954 C462.269 53.9954 462.854 53.9174 463.478 53.7614 C464.141 53.5664 464.726 53.3519 465.233 53.1179 L465.935 55.2239 C465.116 55.4969 464.278 55.7309 463.42 55.9259 C462.601 56.1599 461.918 56.2769 461.372 56.2769 Z" transform="matrix(1.005, 0, 0, 1, 670, 92)" style="fill:#050A23;" />
          <path d="M478.836 56.2769 C475.95 56.2769 473.805 55.3994 472.401 53.6444 C471.036 51.8504 470.353 49.1399 470.353 45.5129 L470.353 27.4949 L472.927 27.4949 L472.927 45.1619 C472.927 48.1259 473.415 50.3294 474.39 51.7724 C475.404 53.2154 477.042 53.9369 479.304 53.9369 C480.981 53.9369 482.502 53.4884 483.867 52.5914 C485.232 51.6554 486.733 50.1929 488.371 48.2039 L488.371 27.4949 L490.945 27.4949 L490.945 55.5749 L488.781 55.5749 L488.488 50.8949 L488.371 50.8949 C487.006 52.4939 485.563 53.8004 484.042 54.8144 C482.521 55.7894 480.786 56.2769 478.836 56.2769 Z" transform="matrix(1.005, 0, 0, 1, 670, 92)" style="fill:#050A23;" />
          <path d="M509.858 56.2769 C506.309 56.2769 503.481 55.0094 501.375 52.4744 C499.269 49.9394 498.216 46.3124 498.216 41.5934 C498.216 38.5514 498.782 35.9384 499.913 33.7544 C501.083 31.5314 502.604 29.8154 504.476 28.6064 C506.387 27.3974 508.454 26.7929 510.677 26.7929 C512.393 26.7929 513.875 27.1049 515.123 27.7289 C516.41 28.3139 517.755 29.1524 519.159 30.2444 L519.042 25.0964 L519.042 13.5134 L521.616 13.5134 L521.616 55.5749 L519.393 55.5749 L519.159 51.9479 L518.984 51.9479 C517.853 53.0789 516.507 54.0929 514.947 54.9899 C513.426 55.8479 511.73 56.2769 509.858 56.2769 Z M510.209 53.9954 C511.769 53.9954 513.251 53.6054 514.655 52.8254 C516.098 52.0064 517.56 50.8559 519.042 49.3739 L519.042 32.7014 C517.56 31.3754 516.156 30.4394 514.83 29.8934 C513.543 29.3474 512.217 29.0744 510.852 29.0744 C508.98 29.0744 507.303 29.6399 505.821 30.7709 C504.339 31.8629 503.15 33.3449 502.253 35.2169 C501.395 37.0889 500.966 39.2144 500.966 41.5934 C500.966 45.2984 501.765 48.3014 503.364 50.6024 C504.963 52.8644 507.245 53.9954 510.209 53.9954 Z" transform="matrix(1.005, 0, 0, 1, 670, 92)" style="fill:#050A23;" />
          <path d="M531.207 55.5749 L531.207 27.4949 L533.781 27.4949 L533.781 55.5749 Z M532.552 20.7089 C531.928 20.7089 531.402 20.4944 530.973 20.0654 C530.544 19.6364 530.329 19.0514 530.329 18.3104 C530.329 17.6474 530.544 17.1014 530.973 16.6724 C531.402 16.2434 531.928 16.0289 532.552 16.0289 C533.215 16.0289 533.742 16.2434 534.132 16.6724 C534.561 17.1014 534.775 17.6474 534.775 18.3104 C534.775 19.0514 534.561 19.6364 534.132 20.0654 C533.742 20.4944 533.215 20.7089 532.552 20.7089 Z" transform="matrix(1.005, 0, 0, 1, 670, 92)" style="fill:#050A23;" />
          <path d="M553.643 56.2769 C551.42 56.2769 549.353 55.7114 547.442 54.5804 C545.531 53.4104 543.99 51.7334 542.82 49.5494 C541.65 47.3264 541.065 44.6744 541.065 41.5934 C541.065 38.4344 541.65 35.7629 542.82 33.5789 C543.99 31.3559 545.531 29.6789 547.442 28.5479 C549.353 27.3779 551.42 26.7929 553.643 26.7929 C555.905 26.7929 557.991 27.3779 559.902 28.5479 C561.813 29.6789 563.354 31.3559 564.524 33.5789 C565.694 35.7629 566.279 38.4344 566.279 41.5934 C566.279 44.6744 565.694 47.3264 564.524 49.5494 C563.354 51.7334 561.813 53.4104 559.902 54.5804 C557.991 55.7114 555.905 56.2769 553.643 56.2769 Z M553.643 53.9954 C555.554 53.9954 557.25 53.4689 558.732 52.4159 C560.214 51.3629 561.384 49.9199 562.242 48.0869 C563.139 46.2149 563.588 44.0504 563.588 41.5934 C563.588 39.0974 563.139 36.9134 562.242 35.0414 C561.384 33.1694 560.214 31.7069 558.732 30.6539 C557.25 29.6009 555.554 29.0744 553.643 29.0744 C551.771 29.0744 550.074 29.6009 548.553 30.6539 C547.071 31.7069 545.901 33.1694 545.043 35.0414 C544.185 36.9134 543.756 39.0974 543.756 41.5934 C543.756 44.0504 544.185 46.2149 545.043 48.0869 C545.901 49.9199 547.071 51.3629 548.553 52.4159 C550.074 53.4689 551.771 53.9954 553.643 53.9954 Z" transform="matrix(1.005, 0, 0, 1, 670, 92)" style="fill:#050A23;" />
        </g>
      </g>
    </g>
    <g transform="matrix(0.000104987, 0, 0, 0.000104987, 427, 513)" id="Picture_6--slide4--31" class="fragment-off" data-fragment-index="2">
      <g clip-path="url(#clip43)" transform="scale(1.01111, 1)">
        <use xlink:href="#img42" width="100%" height="100%" transform="scale(8792.31)" />
      </g>
    </g>
    <g transform="matrix(0.000104987, 0, 0, 0.000104987, 557, 513)" id="Picture_6_DUP2--slide4--32" class="fragment-off" data-fragment-index="2">
      <g clip-path="url(#clip45)">
        <use xlink:href="#img44" width="100%" height="100%" transform="scale(7143.75)" />
      </g>
    </g>
    <text transform="translate(356.894, 141)" id="Rectangle_19--slide4--33" font-family="Carlito,sans-serif" font-size="53" font-weight="400" class="fragment-off" data-fragment-index="1" style="fill:#FF504D;">Components</text>
    <g clip-path="url(#clip46)" transform="matrix(0.000104987, 0, 0, 0.000104987, 497, 513)" id="Picture_30--slide4--34" class="fragment-off" data-fragment-index="2">
      <g clip-path="url(#clip47)" transform="matrix(1, 0, 0, 1.01051, -156002, 0)">
        <use xlink:href="#img19" width="100%" height="100%" transform="scale(5141.44)" />
      </g>
    </g>
    <path d="M644 13.3336 C644 7.62651 648.626 3 654.334 3 L839.666 3 C845.373 3 850 7.62651 850 13.3336 L850 54.6664 C850 60.3735 845.373 65 839.666 65 L654.334 65 C648.626 65 644 60.3735 644 54.6664 Z" id="rectHighlight--slide4--35" fill-rule="evenodd" stroke-width="6" stroke-miterlimit="8" style="fill:none;stroke:#FFC000;" />
    <g clip-path="url(#clip48)" transform="matrix(0.000104987, 0, 0, 0.000104987, 1200, 640)" id="Slide4--slide4--36" style="display:none;">
      <g clip-path="url(#clip50)">
        <use xlink:href="#img49" width="100%" height="100%" transform="matrix(9525, 0, 0, 9525, -1, -0.5)" />
      </g>
    </g>
  </g>
</svg>
